<svg width="187" height="187" viewBox="0 0 187 187" fill="none" xmlns="http://www.w3.org/2000/svg">
<mask id="mask0_211_440" style="mask-type:luminance" maskUnits="userSpaceOnUse" x="5" y="5" width="177" height="177">
<path d="M5.60425 5.49072H181.155V181.042H5.60425V5.49072Z" fill="white"/>
</mask>
<g mask="url(#mask0_211_440)">
<path d="M181.155 156.66C181.155 170.128 170.242 181.042 156.773 181.042H29.9865C16.5227 181.042 5.60425 170.128 5.60425 156.66V29.8729C5.60425 16.4044 16.5227 5.49072 29.9865 5.49072H156.773C170.242 5.49072 181.155 16.4044 181.155 29.8729V156.66Z" fill="#673AB7"/>
</g>
<path d="M137.415 101.069C134.246 96.6796 129.662 93.6563 123.762 92.0473C123.762 92.0473 128.736 90.2429 133.222 83.5137C135.904 79.2224 137.269 74.0532 137.269 68.0066C137.269 57.5224 133.466 49.4762 125.858 43.9659C118.251 38.4556 109.669 34.7493 95.0881 34.7493H49.4937V151.783H100.355C114.155 151.686 124.542 148.711 131.613 143.006C138.635 137.203 142.146 128.62 142.146 117.161C142.146 110.822 140.585 105.458 137.415 101.069ZM78.7521 54.2552C78.7521 54.2552 99.0869 54.2552 99.477 54.2552C106.889 54.2552 112.887 60.2528 112.887 67.6651C112.887 75.0773 106.889 81.0754 99.477 81.0754C99.0869 81.0754 78.7521 81.0754 78.7521 81.0754V54.2552ZM103.134 132.278H78.7521V103.019H103.134C111.229 103.019 117.764 109.554 117.764 117.648C117.764 125.743 111.229 132.278 103.134 132.278Z" fill="white"/>
</svg>
