<svg width="96" height="125" viewBox="0 0 96 125" fill="none" xmlns="http://www.w3.org/2000/svg">
<mask id="mask0_227_15" style="mask-type:luminance" maskUnits="userSpaceOnUse" x="-20" y="3" width="107" height="119">
<path d="M-19.5693 3.20483H86.5557V121.767H-19.5693V3.20483Z" fill="white"/>
</mask>
<g mask="url(#mask0_227_15)">
<path d="M86.5399 3.20459H-19.5532L-10.1922 109.287L33.4933 121.767L77.1789 109.287L86.5399 3.20459Z" fill="#0277BD"/>
</g>
<path d="M33.4944 12.5669V112.097L68.4426 102.112L76.2437 12.5669H33.4944Z" fill="#039BE5"/>
<path d="M61.8899 28.1667H33.4944V40.6469H48.7844L47.8482 53.127H33.4944V65.6075H47.2242L46.288 79.6479L33.4944 84.0157V97.1202L58.1454 89.0079L60.3297 53.127L61.8899 28.1667Z" fill="white"/>
<path d="M33.4943 28.1667V40.6469H5.72282L4.78662 28.1667H33.4943ZM19.1405 53.127L19.7645 65.6075H33.4943V53.127H19.1405ZM20.3885 71.8474H7.90706L8.84326 89.0079L33.4943 97.1202V84.0157L20.7007 79.6479L20.3885 71.8474Z" fill="#EEEEEE"/>
</svg>
