<svg width="125" height="125" viewBox="0 0 125 125" fill="none" xmlns="http://www.w3.org/2000/svg">
<mask id="mask0_227_101" style="mask-type:luminance" maskUnits="userSpaceOnUse" x="3" y="4" width="119" height="117">
<path d="M3.28467 4.24927H121.722V120.916H3.28467V4.24927Z" fill="white"/>
</mask>
<g mask="url(#mask0_227_101)">
<path d="M62.5034 4.27002C29.8 4.27002 3.28467 30.7853 3.28467 63.4888C3.28467 91.2378 22.3927 114.457 48.1528 120.882C47.8765 120.082 47.6987 119.154 47.6987 118.005V107.883C45.2954 107.883 41.2687 107.883 40.257 107.883C36.2052 107.883 32.603 106.141 30.856 102.904C28.9165 99.3061 28.5809 93.8039 23.7742 90.4383C22.3481 89.3182 23.4338 88.0399 25.0773 88.2127C28.1121 89.0714 30.6291 91.1538 32.9976 94.243C35.3566 97.3374 36.467 98.0379 40.8739 98.0379C43.0106 98.0379 46.2085 97.9145 49.2186 97.4409C50.8374 93.3302 53.6356 89.5451 57.0552 87.7586C37.3354 85.7303 27.9246 75.9198 27.9246 62.6004C27.9246 56.866 30.3673 51.3195 34.5177 46.646C33.1558 42.0073 31.4432 32.547 35.0408 28.9445C43.9136 28.9445 49.2778 34.6987 50.5659 36.2531C54.9875 34.7381 59.8436 33.8794 64.9461 33.8794C70.0587 33.8794 74.9344 34.7381 79.366 36.2629C80.6391 34.7183 86.0083 28.9445 94.9009 28.9445C98.5135 32.5519 96.7811 42.0516 95.4044 46.6805C99.5301 51.3439 101.958 56.8761 101.958 62.6004C101.958 75.91 92.562 85.7157 72.8716 87.7537C78.2902 90.5812 82.243 98.5265 82.243 104.513V118.005C82.243 118.518 82.1294 118.888 82.0701 119.327C105.146 111.239 121.722 89.328 121.722 63.4888C121.722 30.7853 95.2069 4.27002 62.5034 4.27002Z" fill="black"/>
</g>
</svg>
