<svg width="125" height="125" viewBox="0 0 125 125" fill="none" xmlns="http://www.w3.org/2000/svg">
<mask id="mask0_227_31" style="mask-type:luminance" maskUnits="userSpaceOnUse" x="103" y="57" width="20" height="23">
<path d="M103.5 57.4998H122.837V79.3331H103.5V57.4998Z" fill="white"/>
</mask>
<g mask="url(#mask0_227_31)">
<path d="M113.18 57.5017C112.886 57.5017 112.6 57.5623 112.347 57.7055L104.346 62.3285C103.828 62.627 103.513 63.1908 103.513 63.7904V73.0203C103.513 73.6195 103.828 74.1827 104.346 74.4819L106.435 75.6866C107.451 76.1876 107.825 76.1794 108.287 76.1794C109.79 76.1794 110.648 75.267 110.648 73.6807V64.5743C110.648 64.4457 110.537 64.3536 110.411 64.3536H109.408C109.28 64.3536 109.17 64.448 109.17 64.5743V73.685C109.17 74.3878 108.439 75.0951 107.251 74.5007L105.079 73.226C105.002 73.1843 104.943 73.1078 104.943 73.0222V63.7924C104.943 63.7048 105.001 63.6156 105.079 63.5714L113.063 58.9649C113.138 58.922 113.227 58.922 113.301 58.9649L121.286 63.5714C121.362 63.6169 121.422 63.7022 121.422 63.7924V73.0222C121.422 73.1104 121.378 73.2006 121.303 73.2432L113.302 77.8497C113.231 77.8907 113.136 77.8907 113.064 77.8497L111.008 76.6261C110.946 76.5903 110.863 76.5929 110.804 76.6261C110.237 76.9477 110.13 76.9851 109.598 77.17C109.467 77.2156 109.267 77.2865 109.666 77.5102L112.35 79.0929C112.606 79.2406 112.89 79.3136 113.183 79.3136C113.479 79.3136 113.76 79.2429 114.015 79.0929L122.017 74.4861C122.535 74.1847 122.85 73.6238 122.85 73.0245V63.7947C122.85 63.1951 122.535 62.6326 122.017 62.3328L114.015 57.7097C113.765 57.5665 113.477 57.5059 113.183 57.5059L113.18 57.5017ZM115.32 64.0968C113.042 64.0968 111.685 65.0671 111.685 66.6804C111.685 68.4285 113.032 68.9115 115.219 69.1277C117.835 69.3842 118.039 69.7686 118.039 70.2836C118.039 71.1775 117.327 71.5583 115.643 71.5583C113.529 71.5583 113.064 71.0304 112.908 69.9757C112.89 69.8627 112.803 69.7719 112.688 69.7719H111.649C111.617 69.7725 111.587 69.7791 111.558 69.7914C111.53 69.8035 111.504 69.8207 111.482 69.8429C111.46 69.8653 111.443 69.8907 111.431 69.9194C111.418 69.9483 111.412 69.9783 111.411 70.0098C111.411 71.3569 112.143 72.9503 115.641 72.9503C118.173 72.9503 119.634 71.9581 119.634 70.2136C119.634 68.489 118.454 68.0229 115.998 67.6977C113.519 67.3669 113.28 67.2087 113.28 66.6267C113.28 66.1466 113.48 65.5046 115.319 65.5046C116.96 65.5046 117.567 65.8591 117.816 66.9666C117.838 67.0704 117.929 67.1554 118.037 67.1554H119.076C119.139 67.1554 119.201 67.1163 119.246 67.0704C119.289 67.0216 119.32 66.9666 119.314 66.9005C119.153 64.9929 117.882 64.0958 115.321 64.0958L115.32 64.0968Z" fill="#83CD29"/>
</g>
<mask id="mask1_227_31" style="mask-type:luminance" maskUnits="userSpaceOnUse" x="2" y="45" width="96" height="35">
<path d="M2.14844 45.3337H97.2487V79.5004H2.14844V45.3337Z" fill="white"/>
</mask>
<g mask="url(#mask1_227_31)">
<path d="M66.1366 45.4022C66.0457 45.4025 65.9608 45.425 65.8817 45.4703C65.8433 45.493 65.8081 45.5201 65.7765 45.5516C65.745 45.5835 65.7183 45.6187 65.6958 45.6574C65.6733 45.6962 65.6564 45.7372 65.6447 45.7805C65.6333 45.8234 65.6271 45.8677 65.6271 45.9123V58.9152C65.6271 59.0428 65.5675 59.1571 65.4569 59.2212C65.4019 59.2535 65.3423 59.2694 65.2785 59.2694C65.2147 59.2694 65.1554 59.2535 65.1001 59.2212L62.9764 57.9976C62.8993 57.9527 62.8172 57.9188 62.7306 57.8954C62.6444 57.8723 62.5565 57.8606 62.467 57.8606C62.3774 57.8606 62.2896 57.8723 62.203 57.8954C62.1167 57.9188 62.0347 57.9527 61.9572 57.9976L53.4806 62.8928C53.1636 63.0754 52.9705 63.4276 52.9705 63.7935V73.5839C52.9702 73.6734 52.9819 73.7616 53.005 73.8482C53.0282 73.9344 53.062 74.0168 53.1066 74.0943C53.1515 74.1718 53.2056 74.2424 53.2687 74.3055C53.3322 74.369 53.4025 74.4231 53.4803 74.4676L61.9578 79.3628C62.035 79.4081 62.117 79.4419 62.2036 79.4654C62.2899 79.4885 62.3778 79.5002 62.4673 79.5002C62.5568 79.5002 62.6447 79.4885 62.7313 79.4654C62.8175 79.4419 62.8996 79.4081 62.9771 79.3628L71.4546 74.4676C71.5321 74.4231 71.6024 74.369 71.6659 74.3055C71.7293 74.2424 71.7834 74.1718 71.828 74.0943C71.8729 74.0168 71.9067 73.9344 71.9298 73.8482C71.953 73.7616 71.9644 73.6734 71.9644 73.5839V49.1757C71.9644 48.8042 71.7616 48.4559 71.4377 48.2749L66.3918 45.452C66.3123 45.4081 66.2248 45.4003 66.1369 45.4009L66.1366 45.4022ZM11.6021 57.6232C11.4403 57.6301 11.2886 57.6581 11.1434 57.7424L2.66619 62.6376C2.58839 62.6822 2.51807 62.7362 2.4546 62.7994C2.39112 62.8628 2.33708 62.9331 2.29249 63.0106C2.24757 63.0884 2.21371 63.1704 2.19092 63.257C2.16781 63.3436 2.15642 63.4318 2.15675 63.5214L2.174 76.6607C2.174 76.8436 2.2684 77.0132 2.42888 77.1024C2.58643 77.1968 2.78174 77.1968 2.93832 77.1024L7.96697 74.2128C8.28598 74.0236 8.49366 73.6939 8.49366 73.3293V67.1926C8.49366 66.8264 8.68604 66.4908 9.00375 66.3088L11.1444 65.0682C11.3019 64.9764 11.4715 64.9312 11.6538 64.9322C11.8361 64.9309 12.006 64.9764 12.1636 65.0682L14.3032 66.3081C14.6206 66.4901 14.813 66.826 14.813 67.1916V73.3277C14.813 73.6929 15.0256 74.0246 15.3394 74.2115L20.368 77.1011C20.5262 77.1955 20.7212 77.1955 20.8778 77.1011C21.0334 77.0113 21.1327 76.8417 21.1327 76.6594L21.1496 63.5204C21.1502 63.4305 21.1388 63.3426 21.1161 63.2557C21.0929 63.1691 21.0594 63.0871 21.0145 63.0093C20.9696 62.9318 20.9155 62.8612 20.8521 62.7981C20.7886 62.7349 20.7179 62.6809 20.6401 62.6366L12.1629 57.743C12.0197 57.6591 11.867 57.6307 11.7043 57.6239H11.6027L11.6021 57.6232ZM87.7795 57.7424C87.5972 57.7421 87.4272 57.7873 87.2697 57.8785L78.7922 62.774C78.4757 62.9569 78.2821 63.2915 78.2821 63.6574V73.4478C78.2821 73.816 78.4894 74.1493 78.8088 74.3313L87.2183 79.1268C87.5285 79.3042 87.9077 79.3176 88.2205 79.1434L93.3172 76.3049C93.4787 76.215 93.5881 76.0474 93.5887 75.8632C93.589 75.6789 93.4933 75.5129 93.3335 75.4214L84.8048 70.5259C84.6453 70.4348 84.5334 70.2502 84.5334 70.0669V67.0054C84.5334 66.8225 84.6466 66.6548 84.8048 66.5637L87.4552 65.0337C87.6128 64.9426 87.8065 64.9426 87.9653 65.0337L90.6216 66.5637C90.6603 66.5858 90.6955 66.6128 90.7274 66.6444C90.759 66.676 90.786 66.7115 90.8084 66.7502C90.8309 66.7889 90.8478 66.83 90.8592 66.8732C90.8706 66.9165 90.8765 66.9605 90.8765 67.0054V69.4188C90.8761 69.4637 90.882 69.5077 90.8934 69.551C90.9051 69.5943 90.922 69.6353 90.9442 69.674C90.9666 69.7131 90.9937 69.7482 91.0252 69.7798C91.0571 69.8114 91.0923 69.8384 91.131 69.8609C91.2899 69.9524 91.4826 69.953 91.6411 69.8609L96.7202 66.9032C97.0353 66.7196 97.23 66.384 97.23 66.0194V63.6571C97.23 63.5676 97.2186 63.4797 97.1955 63.3931C97.1724 63.3065 97.1382 63.2245 97.0936 63.147C97.0487 63.0692 96.9946 62.9989 96.9315 62.9354C96.8683 62.8723 96.7977 62.8182 96.7202 62.7733L88.2938 57.8781C88.1362 57.7867 87.9663 57.7414 87.784 57.7421L87.7795 57.7424ZM62.4318 65.0516C62.48 65.0513 62.5252 65.0627 62.5679 65.0855L65.4728 66.7681C65.5516 66.8137 65.6089 66.898 65.6089 66.9891V70.3544C65.6089 70.4458 65.5522 70.5301 65.4728 70.5754L62.5679 72.258C62.4888 72.3029 62.3921 72.3029 62.3127 72.258L59.4077 70.5754C59.3286 70.5298 59.2716 70.4455 59.2716 70.3544V66.9901C59.2716 66.8986 59.3289 66.8153 59.4077 66.7691L62.3127 65.0865C62.3524 65.0637 62.3875 65.0529 62.4318 65.0529V65.0516Z" fill="#404137"/>
</g>
<path d="M37.0691 57.6919C36.8868 57.6916 36.7169 57.7368 36.559 57.828L28.0815 62.7062C27.7647 62.8892 27.572 63.2414 27.572 63.6069V73.3973C27.5717 73.4868 27.5831 73.575 27.6062 73.6616C27.6293 73.7482 27.6632 73.8302 27.7078 73.9077C27.7527 73.9855 27.8067 74.0558 27.8699 74.119C27.9334 74.1825 28.004 74.2362 28.0815 74.2808L36.559 79.1763C36.6365 79.2212 36.7182 79.2554 36.8048 79.2785C36.891 79.3019 36.9793 79.3136 37.0688 79.3136C37.158 79.3136 37.2462 79.3019 37.3324 79.2785C37.419 79.2554 37.5007 79.2212 37.5782 79.1763L46.0557 74.2808C46.1332 74.2362 46.2039 74.1821 46.267 74.119C46.3305 74.0555 46.3845 73.9852 46.4291 73.9074C46.474 73.8299 46.5079 73.7479 46.531 73.6613C46.5541 73.5747 46.5655 73.4868 46.5655 73.3973V63.6073C46.5655 63.2414 46.3728 62.8892 46.0554 62.7065L37.5779 57.8283C37.4203 57.7368 37.2504 57.6916 37.0681 57.6922L37.0691 57.6919ZM87.7641 66.4286C87.7302 66.4286 87.6928 66.4286 87.6622 66.4452L86.031 67.3973C86.0004 67.4142 85.9757 67.438 85.9574 67.4686C85.9392 67.4989 85.9298 67.5317 85.9291 67.5669V69.4367C85.9291 69.5073 85.9701 69.5715 86.031 69.6069L87.6622 70.5418C87.6905 70.5594 87.7218 70.5682 87.7553 70.5682C87.7888 70.5682 87.8201 70.5594 87.8487 70.5418L89.4796 69.6069C89.5398 69.5721 89.5815 69.5073 89.5815 69.4367V67.5669C89.5815 67.4966 89.5401 67.4325 89.4796 67.397L87.8487 66.4448C87.8184 66.4269 87.7976 66.4282 87.7637 66.4282L87.7641 66.4286Z" fill="#83CD29"/>
</svg>
