<svg width="125" height="125" viewBox="0 0 125 125" fill="none" xmlns="http://www.w3.org/2000/svg">
<path d="M72.9638 62.4103C72.9638 62.5815 72.9596 62.7531 72.9511 62.924C72.9426 63.0952 72.9303 63.2661 72.9133 63.4367C72.8967 63.6073 72.8756 63.7775 72.8505 63.9468C72.8254 64.1164 72.7961 64.2853 72.7626 64.4533C72.7291 64.6216 72.6917 64.7886 72.65 64.9549C72.6083 65.1213 72.5627 65.2863 72.5129 65.4504C72.4631 65.6144 72.4094 65.7769 72.3518 65.9383C72.2939 66.0998 72.2323 66.2596 72.1669 66.4178C72.1012 66.5763 72.0318 66.7329 71.9586 66.8879C71.8853 67.0428 71.8082 67.1958 71.7275 67.3468C71.6467 67.4982 71.5624 67.6473 71.4742 67.7941C71.386 67.9412 71.2945 68.0861 71.1991 68.2284C71.1041 68.3709 71.0055 68.5109 70.9032 68.6486C70.8014 68.7863 70.6959 68.9214 70.5872 69.0539C70.4784 69.1864 70.3665 69.3162 70.2515 69.4432C70.1363 69.5702 70.0185 69.6942 69.8971 69.8153C69.776 69.9367 69.6519 70.0549 69.525 70.1698C69.398 70.285 69.2681 70.397 69.136 70.5057C69.0035 70.6144 68.8684 70.7196 68.7307 70.8218C68.593 70.924 68.453 71.0226 68.3105 71.1177C68.1682 71.2131 68.0234 71.3045 67.8762 71.3927C67.7294 71.481 67.5803 71.5653 67.4293 71.646C67.2782 71.7271 67.1252 71.8039 66.9703 71.8771C66.8153 71.9507 66.6588 72.02 66.5006 72.0854C66.342 72.1512 66.1822 72.2127 66.0211 72.2707C65.8596 72.3283 65.6969 72.382 65.5331 72.4318C65.3691 72.4816 65.204 72.5272 65.0377 72.5688C64.8713 72.6105 64.7043 72.6479 64.5364 72.6815C64.3681 72.715 64.1995 72.7443 64.0299 72.7694C63.8606 72.7944 63.6903 72.8156 63.5198 72.8322C63.3495 72.8491 63.1786 72.8618 63.0074 72.87C62.8362 72.8784 62.665 72.8827 62.4937 72.8827C62.3222 72.8827 62.151 72.8784 61.9801 72.87C61.8088 72.8618 61.6379 72.8491 61.4674 72.8322C61.2968 72.8156 61.1269 72.7944 60.9573 72.7694C60.788 72.7443 60.6191 72.715 60.4511 72.6815C60.2831 72.6479 60.1158 72.6105 59.9498 72.5688C59.7834 72.5272 59.6184 72.4816 59.4543 72.4318C59.2903 72.382 59.1278 72.3283 58.9664 72.2707C58.8049 72.2127 58.6451 72.1512 58.4869 72.0854C58.3287 72.02 58.1721 71.9507 58.0172 71.8771C57.8622 71.8039 57.7092 71.7271 57.5582 71.646C57.4071 71.5653 57.2581 71.481 57.1109 71.3927C56.9641 71.3045 56.8193 71.2131 56.6767 71.1177C56.5344 71.0226 56.3941 70.924 56.2568 70.8218C56.1191 70.7196 55.984 70.6144 55.8515 70.5057C55.719 70.397 55.5894 70.285 55.4625 70.1698C55.3355 70.0549 55.2115 69.9367 55.0901 69.8153C54.969 69.6942 54.8508 69.5702 54.7359 69.4432C54.6207 69.3162 54.509 69.1864 54.4003 69.0539C54.2916 68.9214 54.1861 68.7863 54.0839 68.6486C53.982 68.5109 53.8834 68.3709 53.788 68.2284C53.693 68.0861 53.6012 67.9412 53.5133 67.7941C53.425 67.6473 53.3407 67.4982 53.26 67.3468C53.179 67.1958 53.1021 67.0428 53.0289 66.8879C52.9556 66.7329 52.886 66.5763 52.8206 66.4178C52.7551 66.2596 52.6933 66.0998 52.6357 65.9383C52.5777 65.7769 52.524 65.6144 52.4745 65.4504C52.4247 65.2863 52.3788 65.1213 52.3375 64.9549C52.2958 64.7886 52.2581 64.6216 52.2249 64.4533C52.1913 64.2853 52.162 64.1164 52.137 63.9468C52.1119 63.7775 52.0907 63.6073 52.0741 63.4367C52.0572 63.2661 52.0445 63.0952 52.0361 62.924C52.0279 62.7531 52.0237 62.5815 52.0237 62.4103C52.0237 62.2388 52.0279 62.0675 52.0361 61.8963C52.0445 61.7251 52.0572 61.5545 52.0741 61.384C52.0907 61.2134 52.1119 61.0431 52.137 60.8735C52.162 60.7043 52.1913 60.5353 52.2249 60.3674C52.2581 60.1991 52.2958 60.0321 52.3375 59.8657C52.3788 59.6994 52.4247 59.5343 52.4745 59.3703C52.524 59.2062 52.5777 59.0435 52.6357 58.8823C52.6933 58.7209 52.7551 58.561 52.8206 58.4025C52.886 58.2443 52.9556 58.0877 53.0289 57.9328C53.1021 57.7778 53.179 57.6248 53.26 57.4735C53.3407 57.3224 53.425 57.1733 53.5133 57.0262C53.6012 56.8794 53.693 56.7345 53.788 56.592C53.8834 56.4497 53.982 56.3094 54.0839 56.1717C54.1861 56.0343 54.2916 55.8993 54.4003 55.7668C54.509 55.6343 54.6207 55.5044 54.7359 55.3774C54.8508 55.2505 54.969 55.1265 55.0901 55.005C55.2115 54.884 55.3355 54.7658 55.4625 54.6509C55.5894 54.5356 55.719 54.4237 55.8515 54.3149C55.984 54.2062 56.1191 54.1007 56.2568 53.9989C56.3941 53.8966 56.5344 53.798 56.6767 53.7026C56.8193 53.6076 56.9641 53.5158 57.1109 53.4279C57.2581 53.3397 57.4071 53.2554 57.5582 53.1743C57.7092 53.0936 57.8622 53.0164 58.0172 52.9432C58.1721 52.87 58.3287 52.8006 58.4869 52.7349C58.6451 52.6694 58.8049 52.6079 58.9664 52.55C59.1278 52.4924 59.2903 52.4386 59.4543 52.3888C59.6184 52.339 59.7834 52.2935 59.9498 52.2518C60.1158 52.2101 60.2831 52.1724 60.4511 52.1392C60.6191 52.1056 60.788 52.0763 60.9573 52.0513C61.1269 52.0262 61.2968 52.005 61.4674 51.9881C61.6379 51.9715 61.8088 51.9588 61.9801 51.9504C62.151 51.9419 62.3222 51.938 62.4937 51.938C62.665 51.938 62.8362 51.9419 63.0074 51.9504C63.1786 51.9588 63.3495 51.9715 63.5198 51.9881C63.6903 52.005 63.8606 52.0262 64.0299 52.0513C64.1995 52.0763 64.3681 52.1056 64.5364 52.1392C64.7043 52.1724 64.8713 52.2101 65.0377 52.2518C65.204 52.2935 65.3691 52.339 65.5331 52.3888C65.6969 52.4386 65.8596 52.4924 66.0211 52.55C66.1822 52.6079 66.342 52.6694 66.5006 52.7349C66.6588 52.8006 66.8153 52.87 66.9703 52.9432C67.1252 53.0164 67.2782 53.0936 67.4293 53.1743C67.5803 53.255 67.7294 53.3397 67.8762 53.4279C68.0234 53.5158 68.1682 53.6076 68.3105 53.7026C68.453 53.798 68.593 53.8966 68.7307 53.9989C68.8684 54.1007 69.0035 54.2062 69.136 54.3149C69.2681 54.4237 69.398 54.5356 69.525 54.6506C69.6519 54.7658 69.776 54.884 69.8971 55.005C70.0185 55.1265 70.1363 55.2505 70.2515 55.3774C70.3665 55.5044 70.4784 55.6343 70.5872 55.7668C70.6959 55.8993 70.8014 56.0343 70.9032 56.1717C71.0055 56.3094 71.1041 56.4497 71.1991 56.592C71.2945 56.7345 71.386 56.8794 71.4742 57.0265C71.5624 57.1733 71.6467 57.3224 71.7275 57.4735C71.8082 57.6248 71.8853 57.7778 71.9586 57.9328C72.0318 58.0877 72.1012 58.2443 72.1669 58.4025C72.2323 58.561 72.2939 58.7209 72.3518 58.8823C72.4094 59.0435 72.4631 59.2062 72.5129 59.3703C72.5627 59.5343 72.6083 59.6994 72.65 59.8657C72.6917 60.0321 72.7291 60.1991 72.7626 60.3674C72.7961 60.5353 72.8254 60.7043 72.8505 60.8735C72.8756 61.0431 72.8967 61.2134 72.9133 61.384C72.9303 61.5545 72.9426 61.7251 72.9511 61.8963C72.9596 62.0675 72.9638 62.2388 72.9638 62.4103Z" fill="#00D8FF"/>
<mask id="mask0_227_109" style="mask-type:luminance" maskUnits="userSpaceOnUse" x="3" y="12" width="119" height="101">
<path d="M3.86829 12.751H121.118V112.334H3.86829V12.751Z" fill="white"/>
</mask>
<g mask="url(#mask0_227_109)">
<path d="M62.4941 41.1167C76.5517 41.1167 89.6109 43.1343 99.4576 46.5249C111.322 50.6102 118.615 56.8023 118.615 62.4093C118.615 68.2521 110.885 74.8306 98.1451 79.0526C88.5136 82.2446 75.8388 83.9107 62.4941 83.9107C48.8127 83.9107 35.8573 82.3469 26.1168 79.0177C13.7939 74.8045 6.37134 68.1411 6.37134 62.4093C6.37134 56.8478 13.3359 50.7033 25.0328 46.6242C34.9159 43.1779 48.2971 41.1167 62.4931 41.1167H62.4941Z" stroke="#00D8FF" stroke-width="7.47646"/>
</g>
<mask id="mask1_227_109" style="mask-type:luminance" maskUnits="userSpaceOnUse" x="3" y="7" width="119" height="111">
<path d="M3.86816 7.6001H121.118V117.413H3.86816V7.6001Z" fill="white"/>
</mask>
<g mask="url(#mask1_227_109)">
<path d="M43.9632 51.8222C50.986 39.6422 59.2571 29.3356 67.1126 22.497C76.5774 14.2588 85.583 11.0322 90.4397 13.833C95.5003 16.7519 97.3356 26.7369 94.6276 39.8854C92.5823 49.8255 87.6917 61.6393 81.025 73.2021C74.1901 85.0566 66.3636 95.5009 58.6145 102.275C48.8095 110.848 39.33 113.95 34.3671 111.087C29.5501 108.311 27.7083 99.2047 30.0188 87.0325C31.9713 76.7474 36.871 64.124 43.9602 51.8245L43.9632 51.8222Z" stroke="#00D8FF" stroke-width="7.47646"/>
<path d="M43.98 73.2325C36.9383 61.0662 32.1424 48.7501 30.1408 38.5274C27.7316 26.211 29.4351 16.7943 34.2866 13.9844C39.3423 11.057 48.9074 14.4529 58.9429 23.3656C66.5308 30.1042 74.3221 40.2406 81.0074 51.7914C87.8618 63.6345 92.9995 75.6329 94.9979 85.7302C97.5269 98.5085 95.48 108.271 90.5207 111.144C85.7085 113.93 76.9025 110.98 67.5129 102.898C59.5796 96.0697 51.0917 85.519 43.9794 73.2302L43.98 73.2325Z" stroke="#00D8FF" stroke-width="7.47646"/>
</g>
</svg>
