<svg width="187" height="187" viewBox="0 0 187 187" fill="none" xmlns="http://www.w3.org/2000/svg">
<mask id="mask0_211_428" style="mask-type:luminance" maskUnits="userSpaceOnUse" x="4" y="4" width="179" height="179">
<path d="M4.3103 4.3125H182.286V182.289H4.3103V4.3125Z" fill="white"/>
</mask>
<g mask="url(#mask0_211_428)">
<path d="M182.286 93.3006C182.286 94.7571 182.25 96.2121 182.179 97.6672C182.108 99.1217 182.001 100.573 181.858 102.023C181.715 103.472 181.537 104.917 181.323 106.358C181.109 107.798 180.861 109.233 180.576 110.661C180.292 112.089 179.973 113.51 179.62 114.923C179.266 116.336 178.877 117.739 178.455 119.132C178.032 120.526 177.575 121.909 177.085 123.28C176.594 124.651 176.07 126.009 175.513 127.355C174.955 128.7 174.365 130.031 173.743 131.348C173.12 132.664 172.465 133.965 171.779 135.249C171.092 136.533 170.374 137.8 169.626 139.049C168.877 140.299 168.098 141.529 167.289 142.74C166.48 143.951 165.641 145.141 164.774 146.311C163.907 147.481 163.011 148.628 162.087 149.754C161.163 150.88 160.212 151.982 159.234 153.061C158.256 154.14 157.252 155.195 156.222 156.224C155.193 157.254 154.138 158.258 153.059 159.236C151.98 160.215 150.878 161.165 149.752 162.089C148.626 163.013 147.478 163.909 146.308 164.776C145.139 165.644 143.948 166.482 142.737 167.291C141.526 168.1 140.296 168.879 139.047 169.628C137.798 170.377 136.531 171.095 135.247 171.781C133.963 172.468 132.662 173.122 131.345 173.745C130.029 174.367 128.698 174.957 127.352 175.515C126.007 176.072 124.649 176.596 123.277 177.087C121.906 177.577 120.524 178.034 119.13 178.457C117.736 178.88 116.333 179.268 114.921 179.622C113.508 179.976 112.087 180.294 110.659 180.578C109.231 180.863 107.796 181.111 106.355 181.325C104.915 181.539 103.47 181.717 102.02 181.86C100.571 182.003 99.1195 182.11 97.6645 182.181C96.2099 182.253 94.7549 182.289 93.2984 182.289C91.8418 182.289 90.3863 182.253 88.9317 182.181C87.4772 182.11 86.0255 182.003 84.5758 181.86C83.1266 181.717 81.6817 181.539 80.2413 181.325C78.8003 181.111 77.3661 180.863 75.9378 180.578C74.509 180.294 73.0889 179.976 71.6761 179.622C70.2633 179.268 68.8603 178.88 67.4664 178.457C66.0726 178.034 64.6904 177.577 63.3189 177.087C61.9479 176.596 60.5895 176.072 59.2443 175.515C57.8985 174.957 56.5674 174.367 55.2508 173.745C53.9347 173.122 52.6341 172.468 51.3496 171.781C50.0651 171.095 48.7985 170.377 47.5494 169.628C46.3004 168.879 45.0703 168.1 43.8591 167.291C42.6484 166.482 41.4581 165.644 40.2883 164.776C39.1184 163.909 37.9709 163.013 36.8447 162.089C35.7191 161.165 34.6167 160.215 33.5377 159.236C32.4587 158.258 31.4039 157.254 30.3745 156.224C29.3445 155.195 28.3403 154.14 27.3623 153.061C26.3844 151.982 25.4336 150.88 24.5096 149.754C23.5855 148.628 22.6901 147.481 21.8224 146.311C20.9548 145.141 20.1167 143.951 19.3073 142.74C18.4984 141.529 17.7196 140.299 16.9705 139.049C16.2218 137.8 15.5043 136.533 14.8178 135.249C14.1313 133.965 13.4769 132.664 12.8541 131.348C12.2312 130.031 11.6414 128.7 11.0842 127.355C10.527 126.009 10.0027 124.651 9.51206 123.28C9.02137 121.909 8.56469 120.526 8.14202 119.132C7.71935 117.739 7.33118 116.336 6.97701 114.923C6.62333 113.51 6.30414 112.089 6.01993 110.661C5.73621 109.233 5.48698 107.798 5.27321 106.358C5.05993 104.917 4.88164 103.472 4.7388 102.023C4.59597 100.573 4.48909 99.1217 4.41767 97.6672C4.34577 96.2121 4.3103 94.7571 4.3103 93.3006C4.3103 91.844 4.34577 90.3885 4.41767 88.9339C4.48909 87.4794 4.59597 86.0277 4.7388 84.578C4.88164 83.1288 5.05993 81.6839 5.27321 80.2435C5.48698 78.8025 5.73621 77.3683 6.01993 75.94C6.30414 74.5112 6.62333 73.0911 6.97701 71.6783C7.33118 70.2655 7.71935 68.8625 8.14202 67.4686C8.56469 66.0748 9.02137 64.6926 9.51206 63.3211C10.0027 61.9501 10.527 60.5917 11.0842 59.2465C11.6414 57.9007 12.2312 56.5696 12.8541 55.253C13.4769 53.9369 14.1313 52.6363 14.8178 51.3518C15.5043 50.0672 16.2218 48.8007 16.9705 47.5516C17.7196 46.3026 18.4984 45.0725 19.3073 43.8613C20.1167 42.6506 20.9548 41.4603 21.8224 40.2905C22.6901 39.1206 23.5855 37.9731 24.5096 36.8469C25.4336 35.7212 26.3844 34.6189 27.3623 33.5399C28.3403 32.4609 29.3445 31.4061 30.3745 30.3767C31.4039 29.3467 32.4587 28.3425 33.5377 27.3645C34.6167 26.3866 35.7191 25.4358 36.8447 24.5117C37.9709 23.5877 39.1184 22.6923 40.2883 21.8246C41.4581 20.957 42.6484 20.1189 43.8591 19.3095C45.0703 18.5006 46.3004 17.7218 47.5494 16.9727C48.7985 16.224 50.0651 15.5065 51.3496 14.82C52.6341 14.1335 53.9347 13.4791 55.2508 12.8563C56.5674 12.2334 57.8985 11.6436 59.2443 11.0864C60.5895 10.5291 61.9479 10.0049 63.3189 9.51426C64.6904 9.02357 66.0726 8.56689 67.4664 8.14422C68.8603 7.72155 70.2633 7.33338 71.6761 6.97921C73.0889 6.62552 74.509 6.30634 75.9378 6.02213C77.3661 5.7384 78.8003 5.48917 80.2413 5.27541C81.6817 5.06213 83.1266 4.88383 84.5758 4.741C86.0255 4.59817 87.4772 4.49128 88.9317 4.41987C90.3863 4.34797 91.8418 4.3125 93.2984 4.3125C94.7549 4.3125 96.2099 4.34797 97.6645 4.41987C99.1195 4.49128 100.571 4.59817 102.02 4.741C103.47 4.88383 104.915 5.06213 106.355 5.27541C107.796 5.48917 109.231 5.7384 110.659 6.02213C112.087 6.30634 113.508 6.62552 114.921 6.97921C116.333 7.33338 117.736 7.72155 119.13 8.14422C120.524 8.56689 121.906 9.02357 123.277 9.51426C124.649 10.0049 126.007 10.5291 127.352 11.0864C128.698 11.6436 130.029 12.2334 131.345 12.8563C132.662 13.4791 133.963 14.1335 135.247 14.82C136.531 15.5065 137.798 16.224 139.047 16.9727C140.296 17.7218 141.526 18.5006 142.737 19.3095C143.948 20.1189 145.139 20.957 146.308 21.8246C147.478 22.6923 148.626 23.5877 149.752 24.5117C150.878 25.4358 151.98 26.3866 153.059 27.3645C154.138 28.3425 155.193 29.3467 156.222 30.3767C157.252 31.4061 158.256 32.4609 159.234 33.5399C160.212 34.6189 161.163 35.7212 162.087 36.8469C163.011 37.9731 163.907 39.1206 164.774 40.2905C165.641 41.4603 166.48 42.6506 167.289 43.8613C168.098 45.0725 168.877 46.3026 169.626 47.5516C170.374 48.8007 171.092 50.0672 171.779 51.3518C172.465 52.6363 173.12 53.9369 173.743 55.253C174.365 56.5696 174.955 57.9007 175.513 59.2465C176.07 60.5917 176.594 61.9501 177.085 63.3211C177.575 64.6926 178.032 66.0748 178.455 67.4686C178.877 68.8625 179.266 70.2655 179.62 71.6783C179.973 73.0911 180.292 74.5112 180.576 75.94C180.861 77.3683 181.109 78.8025 181.323 80.2435C181.537 81.6839 181.715 83.1288 181.858 84.578C182.001 86.0277 182.108 87.4794 182.179 88.9339C182.25 90.3885 182.286 91.844 182.286 93.3006Z" fill="white"/>
</g>
<path d="M16.9739 93.2983C16.9739 123.522 34.5278 149.618 59.9968 161.992L23.5777 62.2272C19.3389 71.7305 16.9739 82.2122 16.9739 93.2983ZM144.831 89.453C144.831 80.025 141.44 73.4775 138.545 68.4099C134.672 62.0684 131.033 56.7899 131.033 50.5091C131.033 43.5214 136.377 36.9593 143.866 36.9593C144.203 36.9593 144.507 36.9875 144.845 36.9968C131.267 24.5246 113.175 16.97 93.2974 16.97C66.6245 16.97 43.1595 30.665 29.5116 51.3894C31.3102 51.4273 32.9916 51.455 34.4389 51.455C42.4006 51.455 54.7795 50.5091 54.7795 50.5091C58.8823 50.2326 59.3837 56.2933 55.2527 56.7899C55.2527 56.7899 51.131 57.2864 46.5365 57.5064L74.338 140.204L91.0397 90.1181L79.1438 57.5064C75.041 57.2864 71.1393 56.7899 71.1393 56.7899C67.0272 56.5183 67.4999 50.2283 71.6076 50.5091C71.6076 50.5091 84.2348 51.455 91.7282 51.455C99.7186 51.455 112.074 50.5091 112.074 50.5091C116.181 50.2326 116.673 56.2933 112.566 56.7899C112.566 56.7899 108.411 57.2864 103.821 57.5064L131.394 139.558L139.023 114.135C142.901 104.216 144.831 96.0146 144.831 89.453ZM94.632 99.9585L71.7339 166.512C78.5817 168.55 85.8083 169.627 93.2974 169.627C102.177 169.627 110.702 168.081 118.654 165.299C118.472 164.962 118.251 164.615 118.097 164.245L94.632 99.9585ZM160.287 56.6587C160.624 59.0893 160.807 61.703 160.807 64.5038C160.807 72.2688 159.34 80.9758 154.99 91.8792L131.684 159.304C154.376 146.078 169.626 121.465 169.626 93.3032C169.626 80.0343 166.23 67.5524 160.287 56.6587Z" fill="#01579B"/>
<mask id="mask1_211_428" style="mask-type:luminance" maskUnits="userSpaceOnUse" x="4" y="4" width="179" height="179">
<path d="M4.3103 4.3125H182.286V182.289H4.3103V4.3125Z" fill="white"/>
</mask>
<g mask="url(#mask1_211_428)">
<path d="M4.3103 93.3006C4.3103 142.352 44.2191 182.289 93.2984 182.289C142.378 182.289 182.286 142.352 182.286 93.3006C182.286 44.2495 142.378 4.3125 93.2984 4.3125C44.2191 4.3125 4.3103 44.2495 4.3103 93.3006ZM8.3898 93.3006C8.3898 46.5066 46.467 8.42017 93.2935 8.42017C140.125 8.42017 178.202 46.5066 178.202 93.3006C178.202 140.094 140.125 178.191 93.2984 178.191C46.4767 178.191 8.3898 140.094 8.3898 93.3006Z" fill="#01579B"/>
</g>
</svg>
