<svg width="125" height="125" viewBox="0 0 125 125" fill="none" xmlns="http://www.w3.org/2000/svg">
<mask id="mask0_288_2" style="mask-type:luminance" maskUnits="userSpaceOnUse" x="9" y="3" width="107" height="119">
<path d="M9.43066 3.20483H115.556V121.767H9.43066V3.20483Z" fill="white"/>
</mask>
<g mask="url(#mask0_288_2)">
<path d="M115.54 3.20459H9.44678L18.8078 109.287L62.4933 121.767L106.179 109.287L115.54 3.20459Z" fill="#0277BD"/>
</g>
<path d="M62.4944 12.5669V112.097L97.4426 102.112L105.244 12.5669H62.4944Z" fill="#039BE5"/>
<path d="M90.8899 28.1667H62.4944V40.6469H77.7844L76.8482 53.127H62.4944V65.6075H76.2242L75.288 79.6479L62.4944 84.0157V97.1202L87.1454 89.0079L89.3297 53.127L90.8899 28.1667Z" fill="white"/>
<path d="M62.4943 28.1667V40.6469H34.7228L33.7866 28.1667H62.4943ZM48.1405 53.127L48.7645 65.6075H62.4943V53.127H48.1405ZM49.3885 71.8474H36.9071L37.8433 89.0079L62.4943 97.1202V84.0157L49.7007 79.6479L49.3885 71.8474Z" fill="#EEEEEE"/>
</svg>
