<svg width="125" height="125" viewBox="0 0 125 125" fill="none" xmlns="http://www.w3.org/2000/svg">
<mask id="mask0_227_51" style="mask-type:luminance" maskUnits="userSpaceOnUse" x="3" y="3" width="119" height="119">
<path d="M3.08423 3.08643H121.897V121.899H3.08423V3.08643Z" fill="white"/>
</mask>
<g mask="url(#mask0_227_51)">
<path d="M119.655 57.2031L67.7822 5.3304C67.6937 5.24186 67.6032 5.15527 67.5104 5.07129C67.4176 4.9873 67.3229 4.90527 67.2259 4.82585C67.1292 4.74642 67.0306 4.6696 66.93 4.59473C66.8294 4.52018 66.7272 4.44824 66.623 4.37858C66.5189 4.30892 66.4131 4.24186 66.3056 4.17773C66.1985 4.11328 66.0895 4.05143 65.9791 3.99251C65.8688 3.93327 65.7568 3.87695 65.6435 3.82357C65.5306 3.76986 65.416 3.7194 65.3004 3.67122C65.1845 3.62337 65.068 3.57845 64.9502 3.53613C64.832 3.49382 64.7132 3.45475 64.5934 3.41829C64.4736 3.38184 64.3532 3.34863 64.2314 3.31803C64.11 3.28776 63.9879 3.26042 63.8652 3.23568C63.7425 3.21126 63.6191 3.1901 63.4951 3.17155C63.3714 3.15332 63.247 3.13802 63.1224 3.12565C62.9977 3.11328 62.873 3.10417 62.748 3.09798C62.623 3.0918 62.4977 3.08887 62.3724 3.08887C62.2474 3.08887 62.122 3.0918 61.997 3.09798C61.872 3.10417 61.7474 3.11328 61.6227 3.12565C61.498 3.13802 61.3737 3.15332 61.25 3.17155C61.1259 3.1901 61.0026 3.21126 60.8799 3.23568C60.7571 3.26042 60.6351 3.28776 60.5136 3.31803C60.3919 3.34863 60.2715 3.38184 60.1517 3.41829C60.0319 3.45475 59.9131 3.49382 59.7949 3.53613C59.6771 3.57845 59.5602 3.62337 59.4446 3.67122C59.3291 3.7194 59.2145 3.76986 59.1015 3.82357C58.9883 3.87695 58.8763 3.93327 58.7659 3.99251C58.6556 4.05143 58.5465 4.11328 58.4394 4.17773C58.332 4.24186 58.2262 4.30892 58.122 4.37858C58.0179 4.44824 57.9157 4.52018 57.8151 4.59473C57.7145 4.6696 57.6159 4.74642 57.5192 4.82585C57.4222 4.90527 57.3274 4.9873 57.2347 5.07129C57.1419 5.15527 57.0514 5.24186 56.9629 5.3304L46.1956 16.0977L59.859 29.7611C63.0371 28.6471 66.6758 29.4085 69.208 31.9408C69.3577 32.0905 69.5019 32.2458 69.6409 32.4059C69.7799 32.5658 69.9131 32.7308 70.0403 32.9001C70.1679 33.0697 70.289 33.2432 70.4043 33.4212C70.5195 33.599 70.6285 33.7806 70.7311 33.9661C70.8336 34.1517 70.9297 34.3405 71.0189 34.5329C71.1084 34.7249 71.1907 34.9202 71.2666 35.1182C71.3421 35.3161 71.4108 35.5166 71.4726 35.7194C71.5345 35.9222 71.5888 36.1266 71.6364 36.3333C71.6836 36.54 71.7239 36.748 71.7565 36.9574C71.7894 37.1667 71.8151 37.3773 71.833 37.5882C71.8512 37.7995 71.862 38.0111 71.8655 38.223C71.8688 38.4349 71.8646 38.6468 71.8532 38.8584C71.8418 39.07 71.8229 39.2812 71.7969 39.4915C71.7705 39.7018 71.737 39.9108 71.6963 40.1188C71.6552 40.3268 71.6074 40.5332 71.5521 40.738C71.4967 40.9427 71.4345 41.1452 71.3652 41.3454L84.5348 54.515C87.7204 53.416 91.3961 54.125 93.9394 56.6758C94.0449 56.7812 94.1478 56.889 94.248 56.9997C94.348 57.11 94.4453 57.2227 94.54 57.3379C94.6347 57.4531 94.7265 57.5706 94.8151 57.6904C94.9039 57.8102 94.9899 57.932 95.0729 58.056C95.1556 58.1797 95.2353 58.3057 95.3121 58.4336C95.3886 58.5615 95.4622 58.6911 95.5325 58.8226C95.6028 58.9541 95.6699 59.0869 95.7337 59.2217C95.7975 59.3564 95.8577 59.4928 95.915 59.6305C95.972 59.7682 96.0257 59.9072 96.0758 60.0475C96.1263 60.1878 96.1728 60.3294 96.2161 60.472C96.2597 60.6146 96.2995 60.7585 96.3356 60.903C96.3717 61.0475 96.4046 61.193 96.4336 61.3392C96.4629 61.4853 96.4883 61.6322 96.5101 61.7796C96.5319 61.9271 96.5504 62.0752 96.5651 62.2233C96.5794 62.3717 96.5905 62.5205 96.598 62.6693C96.6051 62.818 96.609 62.9671 96.609 63.1162C96.609 63.2653 96.6051 63.4144 96.598 63.5631C96.5908 63.7122 96.5797 63.8607 96.5651 64.0091C96.5504 64.1576 96.5322 64.3053 96.5104 64.4528C96.4886 64.6003 96.4632 64.7471 96.4339 64.8932C96.4049 65.0397 96.3724 65.1849 96.3359 65.3294C96.2998 65.4743 96.2601 65.6178 96.2168 65.7604C96.1735 65.903 96.1269 66.0446 96.0765 66.1849C96.0263 66.3255 95.9726 66.4645 95.9157 66.6022C95.8587 66.7399 95.7982 66.876 95.7344 67.0107C95.6709 67.1455 95.6038 67.2786 95.5335 67.4101C95.4632 67.5417 95.3896 67.6712 95.3131 67.7991C95.2363 67.9271 95.1565 68.0531 95.0739 68.1771C94.9909 68.3008 94.9053 68.4229 94.8164 68.5423C94.7275 68.6621 94.6357 68.7796 94.5413 68.8949C94.4466 69.0101 94.3493 69.123 94.249 69.2334C94.1491 69.3437 94.0462 69.4518 93.9407 69.5573C93.8353 69.6624 93.7275 69.7653 93.6168 69.8656C93.5065 69.9655 93.3935 70.0628 93.2783 70.1572C93.1631 70.2519 93.0455 70.3437 92.9258 70.4323C92.806 70.5211 92.6842 70.6071 92.5602 70.6898C92.4362 70.7725 92.3105 70.8522 92.1826 70.929C92.0547 71.0055 91.9248 71.0788 91.7933 71.1491C91.6621 71.2194 91.5289 71.2865 91.3939 71.3499C91.2591 71.4137 91.123 71.4743 90.9853 71.5312C90.8476 71.5882 90.7083 71.6419 90.568 71.6921C90.4277 71.7422 90.2861 71.7887 90.1435 71.832C90.001 71.8753 89.8571 71.915 89.7125 71.9512C89.568 71.9873 89.4225 72.0199 89.2763 72.0491C89.1302 72.0781 88.983 72.1035 88.8356 72.1253C88.6881 72.1471 88.5403 72.1654 88.3919 72.18C88.2435 72.1943 88.095 72.2054 87.9459 72.2126C87.7972 72.2197 87.6481 72.2236 87.499 72.2233C87.3499 72.2233 87.2011 72.2197 87.0521 72.2122C86.9033 72.2048 86.7545 72.194 86.6064 72.179C86.458 72.1644 86.3102 72.1462 86.1627 72.1243C86.0153 72.1022 85.8685 72.0768 85.722 72.0475C85.5758 72.0185 85.4306 71.9857 85.2858 71.9495C85.1413 71.9131 84.9977 71.8734 84.8551 71.8301C84.7125 71.7868 84.5709 71.7399 84.4306 71.6894C84.2903 71.6393 84.1513 71.5856 84.0136 71.5283C83.876 71.4713 83.7396 71.4108 83.6048 71.347C83.47 71.2832 83.3372 71.2161 83.2057 71.1458C83.0742 71.0755 82.9446 71.0019 82.8167 70.9251C82.6891 70.8486 82.5631 70.7689 82.4391 70.6859C82.3154 70.6029 82.1933 70.5169 82.0739 70.4281C81.9541 70.3392 81.8366 70.2474 81.7217 70.153C81.6064 70.0583 81.4935 69.9609 81.3831 69.8607C81.2728 69.7604 81.1647 69.6575 81.0595 69.5521C78.3864 66.8789 77.7252 62.9434 79.0768 59.6497L66.7946 47.3675V79.6885C67.692 80.1325 68.4964 80.7067 69.208 81.4111C69.3134 81.5166 69.416 81.6243 69.5163 81.7347C69.6162 81.845 69.7135 81.958 69.8079 82.0732C69.9026 82.1885 69.9941 82.3057 70.083 82.4255C70.1718 82.5452 70.2575 82.667 70.3401 82.791C70.4231 82.9147 70.5029 83.0407 70.5794 83.1683C70.6559 83.2962 70.7295 83.4258 70.7998 83.5573C70.8698 83.6888 70.9368 83.8216 71.0006 83.9564C71.0641 84.0911 71.1246 84.2272 71.1816 84.3649C71.2386 84.5026 71.2923 84.6416 71.3424 84.7819C71.3925 84.9222 71.4394 85.0638 71.4827 85.2064C71.526 85.349 71.5657 85.4925 71.6019 85.637C71.638 85.7816 71.6705 85.9268 71.6998 86.0729C71.7288 86.2191 71.7542 86.3659 71.776 86.5133C71.7981 86.6608 71.8164 86.8086 71.831 86.9567C71.8454 87.1051 71.8564 87.2536 71.8639 87.4027C71.8711 87.5514 71.8746 87.7002 71.8746 87.8493C71.8746 87.9984 71.8711 88.1471 71.8639 88.2959C71.8564 88.445 71.8454 88.5934 71.831 88.7419C71.8164 88.89 71.7981 89.0378 71.776 89.1852C71.7542 89.3327 71.7288 89.4795 71.6998 89.6256C71.6705 89.7718 71.638 89.917 71.6019 90.0615C71.5657 90.2061 71.526 90.3496 71.4827 90.4922C71.4394 90.6348 71.3925 90.7764 71.3424 90.9167C71.2923 91.057 71.2386 91.196 71.1816 91.3336C71.1246 91.4713 71.0641 91.6074 71.0006 91.7422C70.9368 91.8769 70.8698 92.0098 70.7998 92.1413C70.7295 92.2728 70.6559 92.4023 70.5794 92.5303C70.5029 92.6579 70.4231 92.7839 70.3401 92.9075C70.2575 93.0316 70.1718 93.1533 70.083 93.2731C69.9941 93.3929 69.9026 93.5101 69.8079 93.6253C69.7135 93.7406 69.6162 93.8535 69.5163 93.9639C69.416 94.0742 69.3134 94.182 69.208 94.2874C69.1025 94.3929 68.9948 94.4954 68.8844 94.5957C68.7737 94.6956 68.6611 94.793 68.5459 94.8874C68.4306 94.9821 68.3131 95.0736 68.1937 95.1624C68.0739 95.2513 67.9521 95.3369 67.8281 95.4196C67.7044 95.5026 67.5784 95.5824 67.4508 95.6589C67.3229 95.7354 67.1933 95.8089 67.0618 95.8792C66.9303 95.9492 66.7975 96.0163 66.6627 96.0801C66.528 96.1439 66.3919 96.2041 66.2542 96.2611C66.1165 96.318 65.9775 96.3717 65.8372 96.4219C65.6969 96.4723 65.5553 96.5189 65.4127 96.5622C65.2702 96.6055 65.1266 96.6452 64.9821 96.6813C64.8375 96.7174 64.6924 96.7503 64.5462 96.7793C64.4 96.8083 64.2532 96.8336 64.1058 96.8558C63.9583 96.8776 63.8105 96.8958 63.6624 96.9105C63.514 96.9251 63.3655 96.9359 63.2164 96.9434C63.0677 96.9505 62.9189 96.9541 62.7698 96.9541C62.6207 96.9541 62.472 96.9505 62.3229 96.9434C62.1741 96.9359 62.0257 96.9251 61.8773 96.9105C61.7291 96.8958 61.5814 96.8776 61.4339 96.8558C61.2864 96.8336 61.1396 96.8083 60.9935 96.7793C60.8473 96.7503 60.7021 96.7174 60.5576 96.6813C60.4131 96.6452 60.2695 96.6055 60.1269 96.5622C59.9843 96.5189 59.8427 96.472 59.7024 96.4219C59.5621 96.3717 59.4231 96.318 59.2855 96.2611C59.1478 96.2041 59.0117 96.1439 58.8769 96.0801C58.7422 96.0163 58.6093 95.9492 58.4778 95.8792C58.3463 95.8089 58.2168 95.7354 58.0888 95.6589C57.9612 95.5824 57.8353 95.5026 57.7112 95.4196C57.5875 95.3369 57.4658 95.2513 57.346 95.1624C57.2262 95.0736 57.109 94.9821 56.9938 94.8874C56.8786 94.793 56.7656 94.6956 56.6552 94.5957C56.5449 94.4954 56.4371 94.3929 56.3317 94.2874C56.2262 94.1823 56.1233 94.0742 56.0231 93.9639C55.9228 93.8535 55.8255 93.7409 55.7308 93.6256C55.6364 93.5107 55.5446 93.3932 55.4557 93.2734C55.3668 93.154 55.2809 93.0322 55.1979 92.9082C55.1152 92.7845 55.0351 92.6585 54.9586 92.5309C54.8818 92.403 54.8082 92.2734 54.7379 92.1419C54.6676 92.0107 54.6006 91.8776 54.5368 91.7428C54.4729 91.6081 54.4124 91.472 54.3554 91.3343C54.2985 91.1966 54.2448 91.0576 54.1943 90.9173C54.1442 90.777 54.0973 90.6354 54.054 90.4928C54.0107 90.3503 53.971 90.2067 53.9345 90.0622C53.8984 89.9176 53.8659 89.7721 53.8366 89.626C53.8076 89.4798 53.7819 89.333 53.7601 89.1855C53.7383 89.0381 53.72 88.8903 53.7054 88.7419C53.6907 88.5937 53.6797 88.445 53.6725 88.2962C53.665 88.1475 53.6614 87.9984 53.6614 87.8493C53.6614 87.7002 53.665 87.5514 53.6725 87.4023C53.6797 87.2536 53.6907 87.1048 53.7054 86.9567C53.72 86.8083 53.7383 86.6605 53.7601 86.513C53.7819 86.3656 53.8076 86.2187 53.8366 86.0726C53.8659 85.9264 53.8984 85.7809 53.9345 85.6364C53.971 85.4919 54.0107 85.3483 54.054 85.2057C54.0973 85.0631 54.1442 84.9215 54.1943 84.7812C54.2448 84.6409 54.2985 84.5019 54.3554 84.3643C54.4124 84.2266 54.4729 84.0905 54.5368 83.9557C54.6006 83.821 54.6676 83.6881 54.7379 83.5566C54.8082 83.4251 54.8818 83.2956 54.9586 83.1676C55.0351 83.04 55.1152 82.9141 55.1979 82.7904C55.2809 82.6663 55.3668 82.5446 55.4557 82.4251C55.5446 82.3053 55.6364 82.1878 55.7308 82.0729C55.8255 81.9577 55.9228 81.845 56.0231 81.7347C56.1233 81.6243 56.2262 81.5163 56.3317 81.4111C57.2116 80.5348 58.1881 79.8704 59.3131 79.4248V46.8034C58.2288 46.3577 57.2116 45.7005 56.3317 44.8171C56.1728 44.6585 56.0201 44.4941 55.8737 44.3245C55.7272 44.1546 55.5872 43.9795 55.4534 43.7995C55.32 43.6191 55.193 43.4342 55.0732 43.2448C54.9531 43.0553 54.8405 42.8617 54.7347 42.6637C54.6292 42.4658 54.5309 42.2643 54.4404 42.0589C54.3496 41.8538 54.2666 41.6458 54.1914 41.4342C54.1159 41.223 54.0485 41.0094 53.9892 40.793C53.9297 40.5768 53.8782 40.3584 53.8349 40.1383C53.7916 39.9183 53.7565 39.6969 53.7295 39.4743C53.7024 39.2516 53.6836 39.0283 53.6731 38.804C53.6627 38.5801 53.6608 38.3558 53.667 38.1318C53.6728 37.9076 53.6875 37.6836 53.7099 37.4606C53.7327 37.2373 53.7636 37.0153 53.8027 36.7946C53.8418 36.5736 53.889 36.3545 53.9443 36.137C53.9996 35.9196 54.0631 35.7048 54.1344 35.4919C54.2054 35.2793 54.2845 35.0697 54.3714 34.8626L40.8935 21.3923L5.32385 56.9245C5.23531 57.013 5.14905 57.1038 5.06474 57.1966C4.98043 57.2894 4.89872 57.3841 4.8193 57.4808C4.73954 57.5778 4.66272 57.6764 4.58785 57.777C4.51331 57.8776 4.44104 57.9798 4.37138 58.084C4.30172 58.1881 4.23466 58.2939 4.17021 58.4014C4.10575 58.5088 4.04423 58.6178 3.98499 58.7282C3.92607 58.8385 3.86943 58.9505 3.81604 59.0638C3.76233 59.1768 3.71155 59.2913 3.6637 59.4072C3.61552 59.5228 3.5706 59.6396 3.52828 59.7575C3.48596 59.8756 3.4469 59.9945 3.41044 60.1143C3.37398 60.234 3.34045 60.3548 3.31018 60.4762C3.27958 60.598 3.25224 60.72 3.22782 60.8428C3.20341 60.9658 3.18193 61.0892 3.16337 61.2132C3.14514 61.3369 3.12984 61.4613 3.11747 61.5859C3.1051 61.7106 3.09599 61.8356 3.0898 61.9606C3.08362 62.0856 3.08069 62.2109 3.08069 62.3363C3.08069 62.4616 3.08362 62.5866 3.0898 62.7116C3.09599 62.8369 3.1051 62.9619 3.11747 63.0863C3.12984 63.2109 3.14514 63.3353 3.16337 63.4593C3.18193 63.5833 3.20341 63.7067 3.22782 63.8294C3.25224 63.9521 3.27958 64.0745 3.31018 64.196C3.34045 64.3174 3.37398 64.4381 3.41044 64.5579C3.4469 64.6781 3.48596 64.7969 3.52828 64.9147C3.5706 65.0325 3.61552 65.1494 3.6637 65.2653C3.71155 65.3809 3.76233 65.4954 3.81604 65.6087C3.86943 65.722 3.92607 65.8337 3.98499 65.944C4.04423 66.0547 4.10575 66.1634 4.17021 66.2708C4.23466 66.3783 4.30172 66.484 4.37138 66.5882C4.44104 66.6924 4.51331 66.7949 4.58785 66.8955C4.66272 66.9961 4.73954 67.0947 4.8193 67.1914C4.89872 67.2881 4.98043 67.3831 5.06474 67.4759C5.14905 67.5687 5.23531 67.6592 5.32385 67.7477L57.2005 119.617C57.289 119.705 57.3795 119.792 57.4723 119.876C57.5651 119.96 57.6598 120.042 57.7568 120.121C57.8535 120.201 57.9521 120.278 58.0527 120.352C58.1533 120.427 58.2555 120.499 58.3597 120.569C58.4638 120.638 58.5696 120.705 58.6767 120.77C58.7841 120.834 58.8932 120.896 59.0036 120.955C59.1139 121.014 59.2259 121.07 59.3392 121.123C59.4521 121.177 59.5667 121.228 59.6823 121.276C59.7978 121.324 59.9147 121.369 60.0325 121.411C60.1507 121.453 60.2695 121.493 60.3893 121.529C60.5091 121.565 60.6295 121.599 60.7513 121.629C60.8727 121.659 60.9948 121.687 61.1175 121.711C61.2402 121.736 61.3636 121.757 61.4876 121.775C61.6113 121.794 61.7356 121.809 61.8603 121.822C61.9847 121.834 62.1097 121.843 62.2347 121.849C62.3597 121.855 62.485 121.858 62.61 121.858C62.7353 121.858 62.8606 121.855 62.9856 121.849C63.1106 121.843 63.2353 121.834 63.36 121.822C63.4847 121.809 63.609 121.794 63.7327 121.775C63.8567 121.757 63.9801 121.736 64.1028 121.711C64.2256 121.687 64.3476 121.659 64.469 121.629C64.5908 121.599 64.7112 121.565 64.831 121.529C64.9508 121.493 65.0696 121.453 65.1878 121.411C65.3056 121.369 65.4222 121.324 65.5381 121.276C65.6536 121.228 65.7682 121.177 65.8812 121.123C65.9944 121.07 66.1064 121.014 66.2168 120.955C66.3271 120.896 66.4362 120.834 66.5433 120.77C66.6507 120.705 66.7565 120.638 66.8606 120.569C66.9648 120.499 67.067 120.427 67.1676 120.352C67.2682 120.278 67.3668 120.201 67.4635 120.121C67.5605 120.042 67.6552 119.96 67.748 119.876C67.8408 119.792 67.9313 119.705 68.0198 119.617L119.655 68.0631C119.743 67.9749 119.83 67.8841 119.914 67.7913C119.998 67.6986 120.08 67.6038 120.16 67.5072C120.239 67.4101 120.316 67.3115 120.391 67.2109C120.466 67.1103 120.538 67.0081 120.607 66.904C120.677 66.7998 120.744 66.694 120.809 66.5866C120.873 66.4792 120.935 66.3701 120.994 66.2598C121.053 66.1494 121.109 66.0374 121.163 65.9242C121.216 65.8109 121.267 65.6966 121.315 65.5807C121.363 65.4652 121.409 65.3483 121.451 65.2305C121.493 65.1123 121.532 64.9935 121.569 64.8737C121.605 64.7539 121.638 64.6331 121.669 64.5117C121.699 64.39 121.727 64.2679 121.751 64.1452C121.776 64.0221 121.797 63.8988 121.815 63.7747C121.834 63.651 121.849 63.5267 121.862 63.402C121.874 63.2773 121.883 63.1523 121.889 63.0273C121.895 62.9023 121.898 62.777 121.898 62.6517C121.898 62.5264 121.895 62.4014 121.889 62.276C121.883 62.151 121.874 62.026 121.862 61.9014C121.849 61.7767 121.834 61.6527 121.815 61.5286C121.797 61.4046 121.776 61.2812 121.751 61.1585C121.727 61.0355 121.699 60.9134 121.669 60.792C121.638 60.6706 121.605 60.5498 121.569 60.43C121.532 60.3099 121.493 60.1911 121.451 60.0732C121.409 59.9554 121.363 59.8385 121.315 59.7227C121.267 59.6071 121.216 59.4925 121.163 59.3792C121.109 59.2659 121.053 59.1543 120.994 59.0436C120.935 58.9333 120.873 58.8242 120.809 58.7168C120.744 58.6094 120.677 58.5039 120.607 58.3997C120.538 58.2956 120.466 58.193 120.391 58.0924C120.316 57.9919 120.239 57.8932 120.16 57.7965C120.08 57.6999 119.998 57.6048 119.914 57.512C119.83 57.4193 119.743 57.3288 119.655 57.2402" fill="#F03C2E"/>
</g>
</svg>
