<svg width="125" height="125" viewBox="0 0 125 125" fill="none" xmlns="http://www.w3.org/2000/svg">
<mask id="mask0_227_92" style="mask-type:luminance" maskUnits="userSpaceOnUse" x="9" y="2" width="107" height="121">
<path d="M9.88965 2.74854H115.14V122.249H9.88965V2.74854Z" fill="white"/>
</mask>
<g mask="url(#mask0_227_92)">
<path d="M19.4439 110.264L9.85962 2.80371H115.169L105.577 110.249L62.4472 122.196L19.4439 110.264Z" fill="#E44D26"/>
</g>
<path d="M97.3626 103.407L105.563 11.5916H62.5146V113.067L97.3626 103.407Z" fill="#F16529"/>
<path d="M62.4697 24.77H29.4541L33.0111 64.6258H62.5146V51.4474H45.07L43.8643 37.952H62.5146V24.77H62.4697ZM62.5146 85.632L62.4587 85.647L47.7757 81.6847L46.8428 71.174H33.6006L35.4482 91.867L62.4548 99.3293L62.5146 99.3104V85.632Z" fill="#EBEBEB"/>
<path d="M62.4696 64.6258H78.705L77.2122 81.7144L62.5071 85.6805V99.3924L89.536 91.9041L93.1565 51.4399H62.5146L62.4696 64.6258ZM95.1793 28.3071L95.4928 24.77H62.4622V37.9481H94.3059L94.5673 34.9858L95.1793 28.3071Z" fill="white"/>
</svg>
