<svg width="125" height="125" viewBox="0 0 125 125" fill="none" xmlns="http://www.w3.org/2000/svg">
<mask id="mask0_227_24" style="mask-type:luminance" maskUnits="userSpaceOnUse" x="3" y="3" width="119" height="119">
<path d="M3.82739 3.82788H121.202V121.203H3.82739V3.82788Z" fill="white"/>
</mask>
<g mask="url(#mask0_227_24)">
<path d="M3.82739 3.82788H121.202V121.203H3.82739V3.82788Z" fill="#FFD600"/>
</g>
<path d="M80.5713 91.6856C82.8275 95.3503 85.2793 98.8617 90.473 98.8617C94.8356 98.8617 97.1243 96.6938 97.1243 93.6941C97.1243 90.1042 94.7572 88.8295 89.958 86.7397L87.3268 85.6179C79.7331 82.3969 74.6829 78.3604 74.6829 69.8344C74.6829 61.9766 80.6982 55.9972 90.098 55.9972C96.7917 55.9972 101.601 58.3152 105.07 64.3861L96.8734 69.6257C95.0703 66.4044 93.1204 65.1361 90.098 65.1361C87.0137 65.1361 85.0609 67.0824 85.0609 69.6257C85.0609 72.7686 87.0169 74.0404 91.5325 75.9867L94.1637 77.1085C103.114 80.9197 108.161 84.8126 108.161 93.5636C108.161 102.993 100.714 108.161 90.7174 108.161C80.9394 108.161 75.387 103.254 72.2962 97.1794L80.5713 91.6856ZM42.7959 91.9529C44.4456 94.907 46.9531 97.1794 50.5589 97.1794C54.0085 97.1794 55.9941 95.8165 55.9941 90.5183V55.9939H66.861V92.1879C66.861 103.165 60.4935 108.161 51.1947 108.161C42.7926 108.161 36.7282 102.468 34.2568 97.1794L42.7959 91.9529Z" fill="#000001"/>
</svg>
