<svg width="187" height="187" viewBox="0 0 187 187" fill="none" xmlns="http://www.w3.org/2000/svg">
<mask id="mask0_211_391" style="mask-type:luminance" maskUnits="userSpaceOnUse" x="3" y="104" width="75" height="37">
<path d="M3.85645 104.597H77.7333V140.593H3.85645V104.597Z" fill="white"/>
</mask>
<g mask="url(#mask0_211_391)">
<path d="M3.96875 132.42H9.85358V109.18L18.9638 129.447C20.0385 131.89 21.5105 132.768 24.3959 132.768C27.2812 132.768 28.6959 131.9 29.772 129.447L38.8832 109.18V132.429H44.769V109.219C44.769 106.955 43.8615 105.86 41.995 105.294C37.5253 103.898 34.5258 105.106 33.1684 108.125L24.2282 128.126L15.5693 108.116C14.2678 105.097 11.2124 103.889 6.74234 105.286C4.87433 105.852 3.96875 106.947 3.96875 109.21V132.42ZM49.6603 113.498H55.5432V126.307C55.4883 127.004 55.7662 128.637 58.9902 128.686C60.6352 128.713 71.6844 128.686 71.7874 128.686V113.434H77.6834C77.7096 113.434 77.677 134.231 77.678 134.32C77.7101 139.448 71.3161 140.563 68.37 140.649H49.7886V136.688L68.4031 136.687C72.1901 136.286 71.7436 134.404 71.7436 133.769V132.225H59.236C53.4168 132.172 49.7118 129.63 49.6652 126.708C49.6608 126.446 49.791 113.623 49.6618 113.497L49.6603 113.498Z" fill="#00618A"/>
</g>
<path d="M82.22 132.422H99.1389C101.119 132.422 103.044 132.007 104.573 131.289C107.12 130.12 108.364 128.534 108.364 126.459V122.157C108.364 120.458 106.95 118.874 104.178 117.817C102.706 117.25 100.896 116.949 99.1418 116.949H92.0113C89.6356 116.949 88.5032 116.231 88.2209 114.647C88.1641 114.459 88.1641 114.298 88.1641 114.118V111.439C88.1641 111.289 88.1641 111.136 88.2209 110.948C88.5032 109.741 89.126 109.4 91.2194 109.203C91.3895 109.203 91.6154 109.165 91.7864 109.165H108.592V105.241H92.0691C89.692 105.241 88.4478 105.392 87.3153 105.731C83.8023 106.826 82.2739 108.571 82.2739 111.59V115.025C82.2739 117.667 85.2744 119.931 90.309 120.459C90.876 120.496 91.441 120.534 92.006 120.534H98.1177C98.3446 120.534 98.5715 120.534 98.7405 120.572C100.607 120.723 101.401 121.063 101.966 121.742C102.315 122.09 102.419 122.422 102.419 122.789V126.223C102.419 126.638 102.137 127.167 101.571 127.619C101.061 128.073 100.213 128.374 99.0806 128.45C98.8537 128.45 98.6847 128.487 98.4587 128.487H82.2185V132.412L82.22 132.422ZM145.075 125.591C145.075 129.63 148.073 131.894 154.128 132.347C154.693 132.39 155.259 132.415 155.825 132.422H171.16V128.497H155.712C152.261 128.497 150.959 127.629 150.959 125.553V105.249H145.074V125.589L145.075 125.591ZM112.118 125.795V111.804C112.118 108.249 114.613 106.093 119.546 105.412C120.073 105.337 120.602 105.3 121.134 105.299H132.305C132.856 105.3 133.404 105.337 133.95 105.412C138.883 106.093 141.377 108.248 141.377 111.804V125.795C141.377 128.679 140.318 130.223 137.875 131.229L143.672 136.464H136.839L132.149 132.229L127.428 132.528H121.134C120.057 132.528 118.923 132.376 117.675 132.036C113.925 131.015 112.119 129.048 112.119 125.795H112.118ZM118.47 125.447C118.47 125.636 118.527 125.825 118.584 126.052C118.933 127.678 120.455 128.586 122.771 128.586H128.117L123.207 124.151H130.039L134.313 128.019C135.103 127.598 135.622 126.954 135.796 126.128C135.853 125.94 135.853 125.75 135.853 125.561V112.145C135.853 111.994 135.853 111.796 135.796 111.616C135.447 110.104 133.924 109.233 131.657 109.233H122.786C120.17 109.233 118.478 110.368 118.478 112.145V125.457L118.47 125.447Z" fill="#E48E00"/>
<path d="M176.334 98.7363C172.717 98.6387 169.953 98.9744 167.591 99.9708C166.92 100.255 165.85 100.261 165.74 101.103C166.109 101.49 166.167 102.068 166.459 102.543C167.023 103.457 167.977 104.681 168.825 105.321C169.753 106.022 170.709 106.772 171.706 107.381C173.477 108.461 175.454 109.078 177.158 110.159C178.163 110.796 179.16 111.599 180.141 112.319C180.625 112.675 180.952 113.229 181.58 113.451V113.348C181.249 112.926 181.164 112.347 180.86 111.909L179.523 110.571C178.215 108.826 176.556 107.31 174.791 106.042C173.384 105.032 170.235 103.667 169.648 102.028L169.545 101.925C170.543 101.812 171.711 101.452 172.633 101.206C174.179 100.791 175.561 100.898 177.159 100.486L179.32 99.8678V99.4563C178.512 98.627 177.937 97.5305 177.057 96.7809C174.754 94.8177 172.239 92.8588 169.651 91.2225C168.216 90.3155 166.442 89.7272 164.92 88.9586C164.408 88.7001 163.509 88.566 163.171 88.1346C162.372 87.1158 161.937 85.8226 161.32 84.6444C160.03 82.158 158.761 79.4407 157.617 76.8241C156.836 75.0396 156.326 73.2795 155.354 71.6782C150.684 63.9963 145.655 59.3595 137.868 54.8035C136.211 53.8347 134.217 53.4509 132.108 52.951L128.713 52.745C128.022 52.4569 127.303 51.6106 126.655 51.2006C124.074 49.5687 117.457 46.0236 115.546 50.6768C114.34 53.62 117.349 56.4917 118.426 57.9837C119.181 59.0306 120.149 60.2025 120.689 61.3796C121.043 62.1526 121.105 62.9284 121.409 63.7471C122.156 65.754 122.807 67.9553 123.774 69.818C124.263 70.7605 124.802 71.7535 125.42 72.5964C125.8 73.1138 126.45 73.3417 126.552 74.1408C125.917 75.0309 125.88 76.4092 125.522 77.5368C123.915 82.6078 124.521 88.9105 126.859 92.664C127.577 93.8159 129.266 96.2868 131.591 95.3394C133.623 94.5106 133.161 91.945 133.752 89.68C133.882 89.1651 133.802 88.79 134.06 88.4455V88.5485L135.912 92.2525C137.282 94.4601 139.715 96.7678 141.775 98.3253C142.843 99.1323 143.694 100.529 145.066 101.001V100.898H144.964C144.696 100.479 144.278 100.307 143.935 99.9728C143.13 99.1828 142.234 98.2015 141.568 97.2973C139.693 94.7511 138.038 91.9663 136.529 89.065C135.808 87.6804 135.181 86.1524 134.575 84.7431C134.341 84.1994 134.344 83.3784 133.856 83.0966C133.19 84.1299 132.21 84.9641 131.695 86.1835C130.872 88.1332 130.765 90.5098 130.461 92.9759C130.28 93.04 130.361 92.9958 130.255 93.0789C128.823 92.733 128.319 91.2575 127.787 89.9915C126.44 86.7894 126.191 81.6362 127.375 77.9522C127.68 76.9995 129.067 73.9961 128.506 73.1153C128.238 72.2369 127.355 71.7195 126.86 71.0563C126.25 70.2275 125.637 69.1329 125.215 68.1749C124.112 65.6797 123.597 62.8789 122.437 60.3545C121.883 59.1487 120.946 57.9288 120.175 56.8643C119.322 55.6775 118.367 54.8015 117.707 53.3741C117.471 52.8635 117.152 52.0478 117.501 51.5217C117.517 51.4459 117.544 51.374 117.581 51.3065C117.619 51.2385 117.664 51.1772 117.719 51.1223C117.774 51.0679 117.835 51.0218 117.903 50.9844C117.971 50.9474 118.043 50.9202 118.118 50.9037C118.715 50.4441 120.377 51.0563 120.998 51.3157C122.647 52.0017 124.025 52.6542 125.422 53.5801C126.093 54.0164 126.771 54.8851 127.582 55.1241H128.506C129.954 55.4579 131.577 55.229 132.928 55.6391C135.32 56.3659 137.462 57.4979 139.409 58.726C145.338 62.4713 150.185 67.8027 153.501 74.1705C154.035 75.1941 154.265 76.1721 154.735 77.2574C155.683 79.4388 156.877 81.7013 157.821 83.8428C158.763 85.9805 159.679 88.1356 161.01 89.9137C161.709 90.8475 164.411 91.3503 165.638 91.8682C166.499 92.2321 167.909 92.612 168.724 93.1032C170.281 94.0428 171.79 95.1621 173.251 96.1921C173.981 96.7066 176.226 97.8351 176.337 98.764L176.334 98.7363Z" fill="#00618A"/>
<path fill-rule="evenodd" clip-rule="evenodd" d="M130.361 59.532C129.606 59.5184 129.073 59.6141 128.509 59.738V59.841H128.612C128.971 60.5809 129.606 61.0565 130.051 61.6934L131.08 63.8539L131.183 63.7509C131.819 63.3015 132.112 62.5835 132.108 61.4865C131.852 61.2178 131.815 60.8811 131.593 60.56C131.299 60.1325 130.721 59.89 130.359 59.5305L130.361 59.532Z" fill="#00618A"/>
<path fill-rule="evenodd" clip-rule="evenodd" d="M173.927 128.386C173.927 130.977 175.975 132.724 178.264 132.724C180.553 132.724 182.6 130.977 182.6 128.386C182.6 125.794 180.553 124.047 178.264 124.047C175.975 124.047 173.927 125.794 173.927 128.386ZM181.629 128.386C181.629 130.352 180.126 131.822 178.262 131.822C176.378 131.822 174.896 130.352 174.896 128.386C174.896 126.419 176.376 124.95 178.262 124.95C180.124 124.95 181.629 126.419 181.629 128.386ZM179.431 130.862H180.402L178.98 128.688C179.743 128.606 180.321 128.236 180.321 127.334C180.321 126.326 179.684 125.911 178.459 125.911H176.527V130.863H177.36V128.722H178.135L179.43 130.863L179.431 130.862ZM177.36 128.026V126.604H178.32C178.817 126.604 179.419 126.697 179.419 127.276C179.419 127.969 178.875 128.028 178.25 128.028H177.36V128.026Z" fill="#E48E00"/>
</svg>
