<svg width="125" height="125" viewBox="0 0 125 125" fill="none" xmlns="http://www.w3.org/2000/svg">
<mask id="mask0_227_57" style="mask-type:luminance" maskUnits="userSpaceOnUse" x="1" y="30" width="123" height="65">
<path d="M1.70459 30.501H123.267V94.501H1.70459V30.501Z" fill="white"/>
</mask>
<g mask="url(#mask0_227_57)">
<mask id="mask1_227_57" style="mask-type:luminance" maskUnits="userSpaceOnUse" x="1" y="30" width="123" height="65">
<path d="M123.268 62.5077C123.268 63.0308 123.244 63.5539 123.195 64.0763C123.146 64.5991 123.073 65.1206 122.975 65.6414C122.878 66.1623 122.756 66.6815 122.61 67.1991C122.464 67.7166 122.294 68.2319 122.1 68.745C121.906 69.2583 121.688 69.7687 121.446 70.2762C121.205 70.7837 120.939 71.2879 120.651 71.7886C120.362 72.2892 120.05 72.786 119.715 73.2788C119.38 73.7713 119.022 74.2593 118.641 74.7427C118.261 75.2261 117.858 75.7043 117.432 76.1772C117.007 76.6506 116.56 77.1177 116.091 77.5793C115.622 78.0405 115.132 78.4956 114.62 78.9445C114.109 79.3934 113.577 79.8351 113.024 80.2704C112.472 80.7052 111.899 81.133 111.307 81.5532C110.714 81.9735 110.102 82.3859 109.471 82.7905C108.84 83.1948 108.191 83.591 107.523 83.9787C106.855 84.3664 106.169 84.7453 105.466 85.1151C104.762 85.4852 104.042 85.8459 103.305 86.1974C102.568 86.5487 101.815 86.8905 101.046 87.2222C100.277 87.5542 99.4932 87.8761 98.6941 88.1877C97.8952 88.4995 97.0821 88.8006 96.2549 89.0913C95.4281 89.382 94.5879 89.662 93.7347 89.9308C92.8812 90.1997 92.016 90.4579 91.1387 90.7043C90.2614 90.951 89.3734 91.186 88.474 91.41C87.5749 91.6336 86.6657 91.8455 85.7468 92.0457C84.8278 92.2459 83.9001 92.4344 82.9633 92.6105C82.0267 92.787 81.0824 92.951 80.1306 93.1027C79.1788 93.2547 78.2204 93.3944 77.2556 93.5213C76.2904 93.6486 75.3204 93.7632 74.3448 93.8651C73.3689 93.9673 72.3894 94.0568 71.4053 94.1336C70.4213 94.2105 69.4343 94.2743 68.4444 94.3257C67.4545 94.3768 66.4626 94.4155 65.4691 94.4409C64.4756 94.4666 63.4815 94.4797 62.4867 94.4797C61.4919 94.4797 60.4978 94.4666 59.5043 94.4409C58.5108 94.4155 57.5192 94.3768 56.5293 94.3257C55.5391 94.2743 54.5525 94.2101 53.5684 94.1336C52.5844 94.0568 51.6045 93.9673 50.6289 93.8651C49.6534 93.7632 48.683 93.6486 47.7181 93.5213C46.7533 93.3944 45.795 93.2547 44.8428 93.1027C43.891 92.951 42.9467 92.787 42.0101 92.6105C41.0736 92.4344 40.1459 92.2459 39.2269 92.0457C38.3077 91.8455 37.3988 91.6336 36.4994 91.41C35.6003 91.186 34.712 90.951 33.8347 90.7043C32.9574 90.4579 32.0922 90.1997 31.239 89.9308C30.3858 89.662 29.5456 89.382 28.7185 89.0913C27.8913 88.8006 27.0785 88.4995 26.2793 88.1877C25.4805 87.8761 24.6967 87.5542 23.9275 87.2222C23.1586 86.8905 22.4056 86.5487 21.6687 86.1974C20.9317 85.8459 20.2113 85.4852 19.5079 85.1151C18.8047 84.7453 18.1189 84.3664 17.4509 83.9787C16.7829 83.591 16.1332 83.1948 15.5023 82.7905C14.8711 82.3859 14.2595 81.9735 13.6667 81.5532C13.0743 81.133 12.5017 80.7052 11.9489 80.2704C11.3965 79.8351 10.8643 79.3934 10.3529 78.9445C9.84151 78.4956 9.35128 78.0405 8.88253 77.5793C8.41345 77.1177 7.96651 76.6506 7.54106 76.1772C7.11593 75.7043 6.71293 75.2261 6.3324 74.7427C5.95154 74.2593 5.59379 73.7713 5.2585 73.2788C4.92354 72.786 4.61137 72.2892 4.32263 71.7886C4.0339 71.2879 3.76892 70.7837 3.52706 70.2762C3.28552 69.7687 3.06742 69.2583 2.87341 68.745C2.6794 68.2319 2.50948 67.7166 2.36332 67.1991C2.21749 66.6815 2.09574 66.1623 1.99809 65.6414C1.90076 65.1206 1.82751 64.5991 1.77869 64.0763C1.72986 63.5539 1.70544 63.0308 1.70544 62.5077C1.70544 61.9845 1.72986 61.4614 1.77869 60.939C1.82751 60.4162 1.90076 59.8947 1.99809 59.3739C2.09574 58.853 2.21749 58.3342 2.36332 57.8162C2.50948 57.2987 2.6794 56.7834 2.87341 56.2703C3.06742 55.757 3.28552 55.2466 3.52706 54.7391C3.76892 54.2316 4.0339 53.7274 4.32263 53.2267C4.61137 52.7261 4.92354 52.2293 5.2585 51.7365C5.59379 51.244 5.95154 50.756 6.3324 50.2726C6.71293 49.7892 7.11593 49.311 7.54106 48.8381C7.96651 48.3647 8.41345 47.8976 8.88253 47.4364C9.35128 46.9748 9.84151 46.5197 10.3529 46.0708C10.8643 45.6219 11.3965 45.1802 11.9489 44.745C12.5017 44.3101 13.0743 43.8823 13.6667 43.4621C14.2595 43.0418 14.8711 42.6294 15.5023 42.2248C16.1332 41.8205 16.7829 41.4243 17.4509 41.0366C18.1189 40.6489 18.8047 40.27 19.5079 39.9002C20.2113 39.5301 20.9317 39.1694 21.6687 38.8182C22.4056 38.4666 23.1586 38.1248 23.9275 37.7931C24.6967 37.4611 25.4805 37.1392 26.2793 36.8276C27.0785 36.5158 27.8913 36.2147 28.7185 35.924C29.5456 35.6333 30.3858 35.3534 31.239 35.0845C32.0922 34.8156 32.9574 34.5575 33.8347 34.311C34.712 34.0643 35.6003 33.8293 36.4994 33.6053C37.3988 33.3817 38.3077 33.1698 39.2269 32.9696C40.1459 32.7694 41.0736 32.5809 42.0101 32.4048C42.9467 32.2284 43.891 32.0643 44.8428 31.9126C45.795 31.7606 46.7533 31.6209 47.7181 31.494C48.683 31.3667 49.6534 31.2521 50.6289 31.1502C51.6045 31.048 52.5844 30.9585 53.5684 30.8817C54.5525 30.8052 55.5391 30.741 56.5293 30.6896C57.5192 30.6385 58.5108 30.6001 59.5043 30.5744C60.4978 30.5487 61.4919 30.5356 62.4867 30.5356C63.4815 30.5356 64.4756 30.5487 65.4691 30.5744C66.4626 30.6001 67.4545 30.6385 68.4444 30.6896C69.4343 30.741 70.4213 30.8052 71.4053 30.8817C72.3894 30.9585 73.3689 31.048 74.3448 31.1502C75.3204 31.2521 76.2904 31.3667 77.2556 31.494C78.2204 31.6209 79.1788 31.7606 80.1306 31.9126C81.0824 32.0643 82.0267 32.2284 82.9633 32.4048C83.9001 32.5809 84.8278 32.7694 85.7468 32.9696C86.6657 33.1698 87.5749 33.3817 88.474 33.6053C89.3734 33.8293 90.2614 34.0643 91.1387 34.311C92.016 34.5575 92.8812 34.8156 93.7347 35.0845C94.5879 35.3534 95.4281 35.6333 96.2549 35.924C97.0821 36.2147 97.8952 36.5158 98.6941 36.8276C99.4932 37.1392 100.277 37.4611 101.046 37.7931C101.815 38.1248 102.568 38.4666 103.305 38.8182C104.042 39.1694 104.762 39.5301 105.466 39.9002C106.169 40.27 106.855 40.6489 107.523 41.0366C108.191 41.4243 108.84 41.8205 109.471 42.2248C110.102 42.6294 110.714 43.0418 111.307 43.4621C111.899 43.8823 112.472 44.3101 113.024 44.745C113.577 45.1802 114.109 45.6219 114.62 46.0708C115.132 46.5197 115.622 46.9748 116.091 47.4364C116.56 47.8976 117.007 48.3647 117.432 48.8381C117.858 49.311 118.261 49.7892 118.641 50.2726C119.022 50.756 119.38 51.244 119.715 51.7365C120.05 52.2293 120.362 52.7261 120.651 53.2267C120.939 53.7274 121.205 54.2316 121.446 54.7391C121.688 55.2466 121.906 55.757 122.1 56.2703C122.294 56.7834 122.464 57.2987 122.61 57.8162C122.756 58.3342 122.878 58.853 122.975 59.3739C123.073 59.8947 123.146 60.4162 123.195 60.939C123.244 61.4614 123.268 61.9845 123.268 62.5077Z" fill="white"/>
</mask>
<g mask="url(#mask1_227_57)">
<path d="M1.70544 30.5356V94.4797H123.268V30.5356H1.70544Z" fill="url(#paint0_radial_227_57)"/>
</g>
</g>
<path d="M120.892 62.5068C120.892 62.9912 120.868 63.4753 120.822 63.959C120.775 64.4427 120.704 64.9258 120.611 65.4079C120.517 65.89 120.4 66.3704 120.26 66.8496C120.12 67.3288 119.956 67.8057 119.77 68.2809C119.583 68.7559 119.374 69.2285 119.142 69.6982C118.91 70.168 118.655 70.6348 118.377 71.0983C118.1 71.5619 117.8 72.0215 117.478 72.4775C117.156 72.9336 116.812 73.3854 116.446 73.833C116.08 74.2806 115.693 74.723 115.285 75.1611C114.876 75.599 114.446 76.0312 113.995 76.4587C113.545 76.8857 113.074 77.307 112.582 77.7227C112.091 78.138 111.58 78.5472 111.049 78.9499C110.518 79.3525 109.967 79.7484 109.398 80.1374C108.828 80.5267 108.241 80.9082 107.634 81.2826C107.028 81.6572 106.404 82.0238 105.762 82.3828C105.12 82.7415 104.461 83.0921 103.785 83.4349C103.109 83.7773 102.417 84.1113 101.709 84.4365C101.001 84.7617 100.277 85.0781 99.5381 85.3854C98.7992 85.6927 98.0459 85.9906 97.278 86.279C96.5104 86.5677 95.7292 86.8464 94.9342 87.1156C94.1396 87.3844 93.332 87.6436 92.5124 87.8926C91.6924 88.1416 90.861 88.3802 90.0179 88.6087C89.1748 88.8369 88.3213 89.0547 87.4574 89.2617C86.5931 89.4691 85.7197 89.665 84.8366 89.8506C83.9535 90.0358 83.0619 90.2103 82.1618 90.3734C81.2617 90.5365 80.3545 90.6885 79.4398 90.8291C78.5251 90.9697 77.6042 91.0986 76.6768 91.2165C75.7497 91.334 74.8174 91.4401 73.8799 91.5348C72.9424 91.6292 72.0007 91.7119 71.0553 91.7832C70.1097 91.8542 69.1611 91.9134 68.21 91.9609C67.2588 92.0085 66.3057 92.0439 65.3509 92.0677C64.3962 92.0915 63.4411 92.1035 62.485 92.1035C61.5293 92.1035 60.5739 92.0915 59.6191 92.0677C58.6644 92.0439 57.7116 92.0085 56.7601 91.9609C55.8089 91.9134 54.8607 91.8542 53.915 91.7832C52.9694 91.7119 52.028 91.6292 51.0905 91.5348C50.153 91.4401 49.2207 91.334 48.2933 91.2165C47.3662 91.0986 46.4453 90.9697 45.5306 90.8291C44.6159 90.6885 43.7083 90.5365 42.8083 90.3734C41.9085 90.2103 41.0169 90.0358 40.1338 89.8506C39.2507 89.665 38.377 89.4691 37.513 89.2617C36.6488 89.0547 35.7952 88.8369 34.9521 88.6087C34.1094 88.3802 33.2777 88.1416 32.458 87.8926C31.638 87.6436 30.8307 87.3844 30.0358 87.1156C29.2412 86.8464 28.46 86.5677 27.6921 86.279C26.9245 85.9906 26.1709 85.6927 25.432 85.3854C24.6934 85.0781 23.9697 84.7617 23.2614 84.4365C22.5531 84.1113 21.861 83.7773 21.1852 83.4349C20.5091 83.0921 19.8503 82.7415 19.2083 82.3828C18.5664 82.0238 17.9424 81.6572 17.3359 81.2826C16.7295 80.9082 16.1416 80.5267 15.5723 80.1374C15.0029 79.7484 14.4525 79.3525 13.9215 78.9499C13.3903 78.5472 12.8792 78.138 12.3877 77.7227C11.8965 77.307 11.4255 76.8857 10.9746 76.4587C10.5241 76.0312 10.0944 75.599 9.68587 75.1611C9.27702 74.723 8.88997 74.2806 8.52409 73.833C8.1582 73.3854 7.81445 72.9336 7.49251 72.4775C7.17025 72.0215 6.87044 71.5619 6.5931 71.0983C6.31576 70.6348 6.06087 70.168 5.82845 69.6982C5.59635 69.2285 5.38704 68.7559 5.20052 68.2809C5.014 67.8057 4.85059 67.3288 4.71029 66.8496C4.56999 66.3704 4.45312 65.89 4.35938 65.4079C4.26562 64.9258 4.19531 64.4427 4.14844 63.959C4.10156 63.4753 4.07812 62.9912 4.07812 62.5068C4.07812 62.0225 4.10156 61.5384 4.14844 61.0547C4.19531 60.571 4.26562 60.0879 4.35938 59.6058C4.45312 59.1237 4.56999 58.6432 4.71029 58.1641C4.85059 57.6849 5.014 57.208 5.20052 56.7327C5.38704 56.2578 5.59635 55.7852 5.82845 55.3154C6.06087 54.8457 6.31576 54.3789 6.5931 53.9154C6.87044 53.4518 7.17025 52.9922 7.49251 52.5361C7.81445 52.0801 8.1582 51.6283 8.52409 51.1807C8.88997 50.7331 9.27702 50.2907 9.68587 49.8525C10.0944 49.4147 10.5241 48.9824 10.9746 48.555C11.4255 48.1279 11.8965 47.7067 12.3877 47.291C12.8792 46.8757 13.3903 46.4665 13.9215 46.0638C14.4525 45.6611 15.0029 45.2653 15.5723 44.8763C16.1416 44.487 16.7295 44.1055 17.3359 43.7311C17.9424 43.3564 18.5664 42.9899 19.2083 42.6309C19.8503 42.2721 20.5091 41.9215 21.1852 41.5788C21.861 41.2363 22.5531 40.9027 23.2614 40.5771C23.9697 40.252 24.6934 39.9355 25.432 39.6283C26.1709 39.321 26.9245 39.0231 27.6921 38.7347C28.46 38.446 29.2412 38.1673 30.0358 37.8981C30.8307 37.6292 31.638 37.3701 32.458 37.1211C33.2777 36.8721 34.1094 36.6335 34.9521 36.4049C35.7952 36.1768 36.6488 35.959 37.513 35.752C38.377 35.5449 39.2507 35.3486 40.1338 35.1631C41.0169 34.9779 41.9085 34.8034 42.8083 34.6403C43.7083 34.4772 44.6159 34.3252 45.5306 34.1846C46.4453 34.0439 47.3662 33.915 48.2933 33.7972C49.2207 33.6797 50.153 33.5736 51.0905 33.4788C52.028 33.3844 52.9694 33.3018 53.915 33.2305C54.8607 33.1595 55.8089 33.1003 56.7601 33.0527C57.7116 33.0052 58.6644 32.9697 59.6191 32.946C60.5739 32.9222 61.5293 32.9102 62.485 32.9102C63.4411 32.9102 64.3962 32.9222 65.3509 32.946C66.3057 32.9697 67.2588 33.0052 68.21 33.0527C69.1611 33.1003 70.1097 33.1595 71.0553 33.2305C72.0007 33.3018 72.9424 33.3844 73.8799 33.4788C74.8174 33.5736 75.7497 33.6797 76.6768 33.7972C77.6042 33.915 78.5251 34.0439 79.4398 34.1846C80.3545 34.3252 81.2617 34.4772 82.1618 34.6403C83.0619 34.8034 83.9535 34.9779 84.8366 35.1631C85.7197 35.3486 86.5931 35.5449 87.4574 35.752C88.3213 35.959 89.1748 36.1768 90.0179 36.4049C90.861 36.6335 91.6924 36.8721 92.5124 37.1211C93.332 37.3701 94.1396 37.6292 94.9342 37.8981C95.7292 38.1673 96.5104 38.446 97.278 38.7347C98.0459 39.0231 98.7992 39.321 99.5381 39.6283C100.277 39.9355 101.001 40.252 101.709 40.5771C102.417 40.9027 103.109 41.2363 103.785 41.5788C104.461 41.9215 105.12 42.2721 105.762 42.6309C106.404 42.9899 107.028 43.3564 107.634 43.7311C108.241 44.1055 108.828 44.487 109.398 44.8763C109.967 45.2653 110.518 45.6611 111.049 46.0638C111.58 46.4665 112.091 46.8757 112.582 47.291C113.074 47.7067 113.545 48.1279 113.995 48.555C114.446 48.9824 114.876 49.4147 115.285 49.8525C115.693 50.2907 116.08 50.7331 116.446 51.1807C116.812 51.6283 117.156 52.0801 117.478 52.5361C117.8 52.9922 118.1 53.4518 118.377 53.9154C118.655 54.3789 118.91 54.8457 119.142 55.3154C119.374 55.7852 119.583 56.2578 119.77 56.7327C119.956 57.208 120.12 57.6849 120.26 58.1641C120.4 58.6432 120.517 59.1237 120.611 59.6058C120.704 60.0879 120.775 60.571 120.822 61.0547C120.868 61.5384 120.892 62.0225 120.892 62.5068Z" fill="#6181B6"/>
<path d="M74.3088 72.1025L77.2057 57.1855C77.8704 53.8125 77.3004 51.2946 75.5911 49.7269C73.929 48.2067 71.08 47.4466 66.9013 47.4466H61.8678L63.2922 40.0355C63.3398 39.7507 63.2922 39.4655 63.1025 39.2279C62.9124 38.9906 62.6751 38.8955 62.3902 38.8955H55.4573C54.9824 38.8955 54.6025 39.2279 54.5074 39.6556L51.4208 55.4753C51.136 53.6699 50.4713 52.1497 49.3316 50.9147C47.2896 48.5869 44.1083 47.3991 39.787 47.3991H26.4436C25.9687 47.3991 25.5888 47.7318 25.4941 48.1592L19.2734 80.2738C19.2258 80.5586 19.2734 80.8437 19.4635 81.0814C19.6533 81.3187 19.8906 81.4137 20.1757 81.4137H27.1559C27.6308 81.4137 28.0107 81.0814 28.1057 80.6536L29.6253 72.9102H34.801C37.5077 72.9102 39.8346 72.625 41.5914 72.055C43.4433 71.4375 45.1054 70.4398 46.5774 69.0622C47.7646 67.9694 48.7616 66.7344 49.5214 65.404L48.287 71.8174C48.2395 72.1025 48.287 72.3877 48.4768 72.625C48.6669 72.8626 48.9042 72.9577 49.1891 72.9577H56.122C56.5969 72.9577 56.9768 72.625 57.0719 72.1976L60.4908 54.6201H65.2392C67.2812 54.6201 67.8508 55 68.0409 55.1901C68.1832 55.3327 68.4684 55.9027 68.1357 57.6605L65.3818 71.8649C65.3342 72.1501 65.3818 72.4349 65.5715 72.6725C65.7617 72.9102 65.999 73.0052 66.2838 73.0052H73.4068C73.8339 72.8626 74.2138 72.5299 74.3088 72.1025ZM42.2089 59.7507C41.7815 61.9837 40.9742 63.599 39.787 64.5013C38.5999 65.404 36.6529 65.8792 34.0888 65.8792H31.0022L33.234 54.3825H37.2229C40.1669 54.3825 41.3541 55 41.829 55.5228C42.4462 56.2829 42.5888 57.7555 42.2089 59.7507Z" fill="white"/>
<path d="M103.94 50.916C101.898 48.5882 98.7164 47.4004 94.3951 47.4004H80.9569C80.482 47.4004 80.1021 47.7331 80.0071 48.1605L73.7867 80.2275C73.7392 80.5124 73.7867 80.7975 73.9765 81.0352C74.1666 81.2725 74.4039 81.3675 74.6887 81.3675H81.6692C82.1441 81.3675 82.524 81.0352 82.6187 80.6074L84.1382 72.8639H89.3143C92.0207 72.8639 94.3475 72.5788 96.1047 72.0088C97.9566 71.3913 99.6184 70.3936 101.091 69.016C102.325 67.8757 103.37 66.5931 104.13 65.2155C104.89 63.8376 105.459 62.3174 105.792 60.6546C106.599 56.5218 105.982 53.2913 103.94 50.916ZM96.6744 59.752C96.247 61.985 95.44 63.6003 94.2528 64.5026C93.0656 65.4053 91.1187 65.8805 88.5546 65.8805H85.468L87.6998 54.3838H91.6884C94.6327 54.3838 95.8199 55.0013 96.2945 55.5241C96.9595 56.2842 97.1018 57.7568 96.6744 59.752Z" fill="white"/>
<path d="M37.2227 53.4319C39.8819 53.4319 41.6387 53.9071 42.5411 54.9049C43.4431 55.9023 43.6332 57.565 43.1582 59.9403C42.6833 62.4107 41.7338 64.2161 40.3568 65.2613C38.9795 66.3062 36.8903 66.829 34.0886 66.829H29.8623L32.474 53.4319H37.2227ZM20.223 80.4156H27.2032L28.8653 71.912H34.8483C37.5075 71.912 39.6442 71.6272 41.3539 71.0569C43.0632 70.4869 44.5827 69.5842 46.0075 68.2542C47.1947 67.1614 48.1442 65.9739 48.8565 64.691C49.5687 63.4084 50.0912 61.9833 50.376 60.4156C51.1358 56.6148 50.5661 53.6695 48.7142 51.5318C46.862 49.3941 43.918 48.3489 39.8819 48.3489H26.4434L20.223 80.4156Z" fill="#000004"/>
<path d="M55.5048 39.8462H62.4374L60.7756 48.3498H66.9488C70.8423 48.3498 73.5015 49.0148 74.9735 50.3924C76.4458 51.7703 76.8729 53.9556 76.3033 56.9959L73.4068 71.9129H66.3788L69.133 57.7085C69.4654 56.0933 69.3228 55.0005 68.8007 54.4305C68.2782 53.8605 67.091 53.5278 65.3342 53.5278H59.7782L56.217 71.9129H49.2841L55.5048 39.8462Z" fill="#000004"/>
<path d="M91.6884 53.4319C94.3476 53.4319 96.1047 53.9071 97.0068 54.9049C97.9091 55.9023 98.0992 57.565 97.6243 59.9403C97.1493 62.4107 96.1998 64.2161 94.8225 65.2613C93.4456 66.3062 91.356 66.829 88.5546 66.829H84.3284L86.94 53.4319H91.6884ZM74.6887 80.4156H81.6692L83.331 71.912H89.3144C91.9736 71.912 94.1103 71.6272 95.8199 71.0569C97.5292 70.4869 99.0487 69.5842 100.473 68.2542C101.66 67.1614 102.61 65.9739 103.323 64.691C104.035 63.4084 104.557 61.9833 104.842 60.4156C105.602 56.6148 105.032 53.6695 103.18 51.5318C101.328 49.3941 98.384 48.3489 94.3476 48.3489H80.9094L74.6887 80.4156Z" fill="#000004"/>
<defs>
<radialGradient id="paint0_radial_227_57" cx="0" cy="0" r="1" gradientUnits="userSpaceOnUse" gradientTransform="translate(38.1987 41.7796) scale(79.8213 79.857)">
<stop stop-color="#FEFEFF"/>
<stop offset="0.00390625" stop-color="#FDFDFE"/>
<stop offset="0.0078125" stop-color="#FCFCFD"/>
<stop offset="0.0117188" stop-color="#FAFBFC"/>
<stop offset="0.015625" stop-color="#F9FAFB"/>
<stop offset="0.0195312" stop-color="#F7F9FB"/>
<stop offset="0.0234375" stop-color="#F6F7FA"/>
<stop offset="0.0273438" stop-color="#F5F6F9"/>
<stop offset="0.03125" stop-color="#F3F5F8"/>
<stop offset="0.0351562" stop-color="#F2F4F7"/>
<stop offset="0.0390625" stop-color="#F0F3F6"/>
<stop offset="0.0429688" stop-color="#EFF2F6"/>
<stop offset="0.046875" stop-color="#EEF1F5"/>
<stop offset="0.0507812" stop-color="#ECEFF4"/>
<stop offset="0.0546875" stop-color="#EBEEF3"/>
<stop offset="0.0585938" stop-color="#E9EDF2"/>
<stop offset="0.0625" stop-color="#E8ECF2"/>
<stop offset="0.0664062" stop-color="#E7EBF1"/>
<stop offset="0.0703125" stop-color="#E5EAF0"/>
<stop offset="0.0742188" stop-color="#E4E8EF"/>
<stop offset="0.078125" stop-color="#E2E7EE"/>
<stop offset="0.0820312" stop-color="#E1E6EE"/>
<stop offset="0.0859375" stop-color="#E0E5ED"/>
<stop offset="0.0898438" stop-color="#DEE4EC"/>
<stop offset="0.09375" stop-color="#DDE3EB"/>
<stop offset="0.0976562" stop-color="#DBE2EA"/>
<stop offset="0.101562" stop-color="#DAE0E9"/>
<stop offset="0.105469" stop-color="#D9DFE9"/>
<stop offset="0.109375" stop-color="#D7DEE8"/>
<stop offset="0.113281" stop-color="#D6DDE7"/>
<stop offset="0.117188" stop-color="#D4DCE6"/>
<stop offset="0.121094" stop-color="#D3DBE5"/>
<stop offset="0.125" stop-color="#D2D9E5"/>
<stop offset="0.128906" stop-color="#D0D8E4"/>
<stop offset="0.132812" stop-color="#CFD7E3"/>
<stop offset="0.136719" stop-color="#CDD6E2"/>
<stop offset="0.140625" stop-color="#CCD5E1"/>
<stop offset="0.144531" stop-color="#CBD4E1"/>
<stop offset="0.148438" stop-color="#C9D3E0"/>
<stop offset="0.152344" stop-color="#C8D1DF"/>
<stop offset="0.15625" stop-color="#C6D0DE"/>
<stop offset="0.160156" stop-color="#C5CFDD"/>
<stop offset="0.164062" stop-color="#C4CEDC"/>
<stop offset="0.167969" stop-color="#C2CDDC"/>
<stop offset="0.171875" stop-color="#C1CCDB"/>
<stop offset="0.175781" stop-color="#BFCADA"/>
<stop offset="0.179688" stop-color="#BEC9D9"/>
<stop offset="0.183594" stop-color="#BDC8D8"/>
<stop offset="0.1875" stop-color="#BBC7D8"/>
<stop offset="0.191406" stop-color="#BAC6D7"/>
<stop offset="0.195312" stop-color="#B8C5D6"/>
<stop offset="0.199219" stop-color="#B7C3D5"/>
<stop offset="0.203125" stop-color="#B6C2D4"/>
<stop offset="0.207031" stop-color="#B4C1D4"/>
<stop offset="0.210938" stop-color="#B3C0D3"/>
<stop offset="0.214844" stop-color="#B1BFD2"/>
<stop offset="0.21875" stop-color="#B0BED1"/>
<stop offset="0.222656" stop-color="#AFBDD0"/>
<stop offset="0.226562" stop-color="#ADBBCF"/>
<stop offset="0.230469" stop-color="#ACBACF"/>
<stop offset="0.234375" stop-color="#AAB9CE"/>
<stop offset="0.238281" stop-color="#A9B8CD"/>
<stop offset="0.242188" stop-color="#A8B7CC"/>
<stop offset="0.246094" stop-color="#A6B6CB"/>
<stop offset="0.25" stop-color="#A5B4CB"/>
<stop offset="0.253906" stop-color="#A3B3CA"/>
<stop offset="0.257812" stop-color="#A2B2C9"/>
<stop offset="0.261719" stop-color="#A1B1C8"/>
<stop offset="0.265625" stop-color="#9FB0C7"/>
<stop offset="0.269531" stop-color="#9EAFC7"/>
<stop offset="0.273438" stop-color="#9CAEC6"/>
<stop offset="0.277344" stop-color="#9BACC5"/>
<stop offset="0.28125" stop-color="#9AABC4"/>
<stop offset="0.285156" stop-color="#98AAC3"/>
<stop offset="0.289062" stop-color="#97A9C2"/>
<stop offset="0.292969" stop-color="#95A8C2"/>
<stop offset="0.296875" stop-color="#94A7C1"/>
<stop offset="0.300781" stop-color="#93A5C0"/>
<stop offset="0.304688" stop-color="#91A4BF"/>
<stop offset="0.308594" stop-color="#90A3BE"/>
<stop offset="0.3125" stop-color="#8EA2BE"/>
<stop offset="0.316406" stop-color="#8DA1BD"/>
<stop offset="0.320312" stop-color="#8CA0BC"/>
<stop offset="0.324219" stop-color="#8A9FBB"/>
<stop offset="0.328125" stop-color="#899DBA"/>
<stop offset="0.332031" stop-color="#879CB9"/>
<stop offset="0.335938" stop-color="#869BB9"/>
<stop offset="0.339844" stop-color="#859AB8"/>
<stop offset="0.34375" stop-color="#8399B7"/>
<stop offset="0.347656" stop-color="#8298B6"/>
<stop offset="0.351562" stop-color="#8096B5"/>
<stop offset="0.355469" stop-color="#7F95B5"/>
<stop offset="0.359375" stop-color="#7E94B4"/>
<stop offset="0.363281" stop-color="#7C93B3"/>
<stop offset="0.367188" stop-color="#7B92B2"/>
<stop offset="0.371094" stop-color="#7991B1"/>
<stop offset="0.375" stop-color="#788FB1"/>
<stop offset="0.378906" stop-color="#778EB0"/>
<stop offset="0.382812" stop-color="#758DAF"/>
<stop offset="0.386719" stop-color="#748CAE"/>
<stop offset="0.390625" stop-color="#728BAD"/>
<stop offset="0.394531" stop-color="#718AAC"/>
<stop offset="0.398438" stop-color="#7089AC"/>
<stop offset="0.402344" stop-color="#6E87AB"/>
<stop offset="0.40625" stop-color="#6D86AA"/>
<stop offset="0.410156" stop-color="#6B85A9"/>
<stop offset="0.414062" stop-color="#6A84A8"/>
<stop offset="0.417969" stop-color="#6983A8"/>
<stop offset="0.421875" stop-color="#6782A7"/>
<stop offset="0.425781" stop-color="#6680A6"/>
<stop offset="0.429688" stop-color="#647FA5"/>
<stop offset="0.433594" stop-color="#637EA4"/>
<stop offset="0.4375" stop-color="#627DA4"/>
<stop offset="0.441406" stop-color="#607CA3"/>
<stop offset="0.445312" stop-color="#5F7BA2"/>
<stop offset="0.449219" stop-color="#5D7AA1"/>
<stop offset="0.453125" stop-color="#5C78A0"/>
<stop offset="0.457031" stop-color="#5B779F"/>
<stop offset="0.460938" stop-color="#59769F"/>
<stop offset="0.464844" stop-color="#58759E"/>
<stop offset="0.46875" stop-color="#56749D"/>
<stop offset="0.472656" stop-color="#55739C"/>
<stop offset="0.476562" stop-color="#54719B"/>
<stop offset="0.480469" stop-color="#52709B"/>
<stop offset="0.484375" stop-color="#516F9A"/>
<stop offset="0.488281" stop-color="#4F6E99"/>
<stop offset="0.492188" stop-color="#4E6D98"/>
<stop offset="0.496094" stop-color="#4D6C97"/>
<stop offset="0.5" stop-color="#4C6B96"/>
<stop offset="0.503906" stop-color="#4C6A96"/>
<stop offset="0.507812" stop-color="#4B6A95"/>
<stop offset="0.511719" stop-color="#4B6994"/>
<stop offset="0.515625" stop-color="#4B6893"/>
<stop offset="0.519531" stop-color="#4A6892"/>
<stop offset="0.523438" stop-color="#4A6791"/>
<stop offset="0.527344" stop-color="#4A6790"/>
<stop offset="0.53125" stop-color="#49668F"/>
<stop offset="0.535156" stop-color="#49658E"/>
<stop offset="0.539062" stop-color="#49658D"/>
<stop offset="0.542969" stop-color="#48648C"/>
<stop offset="0.546875" stop-color="#48648B"/>
<stop offset="0.550781" stop-color="#48638A"/>
<stop offset="0.554688" stop-color="#476289"/>
<stop offset="0.558594" stop-color="#476289"/>
<stop offset="0.5625" stop-color="#476188"/>
<stop offset="0.566406" stop-color="#466187"/>
<stop offset="0.570312" stop-color="#466086"/>
<stop offset="0.574219" stop-color="#466085"/>
<stop offset="0.578125" stop-color="#455F84"/>
<stop offset="0.582031" stop-color="#455E83"/>
<stop offset="0.585938" stop-color="#455E82"/>
<stop offset="0.589844" stop-color="#445D81"/>
<stop offset="0.59375" stop-color="#445D80"/>
<stop offset="0.597656" stop-color="#445C7F"/>
<stop offset="0.601562" stop-color="#435B7E"/>
<stop offset="0.605469" stop-color="#435B7D"/>
<stop offset="0.609375" stop-color="#435A7C"/>
<stop offset="0.613281" stop-color="#435A7C"/>
<stop offset="0.617188" stop-color="#42597B"/>
<stop offset="0.621094" stop-color="#42587A"/>
<stop offset="0.625" stop-color="#425879"/>
<stop offset="0.628906" stop-color="#415778"/>
<stop offset="0.632812" stop-color="#415777"/>
<stop offset="0.636719" stop-color="#415676"/>
<stop offset="0.640625" stop-color="#405575"/>
<stop offset="0.644531" stop-color="#405574"/>
<stop offset="0.648438" stop-color="#405473"/>
<stop offset="0.652344" stop-color="#3F5472"/>
<stop offset="0.65625" stop-color="#3F5371"/>
<stop offset="0.660156" stop-color="#3F5270"/>
<stop offset="0.664062" stop-color="#3E526F"/>
<stop offset="0.667969" stop-color="#3E516E"/>
<stop offset="0.671875" stop-color="#3E516E"/>
<stop offset="0.675781" stop-color="#3D506D"/>
<stop offset="0.679688" stop-color="#3D4F6C"/>
<stop offset="0.683594" stop-color="#3D4F6B"/>
<stop offset="0.6875" stop-color="#3C4E6A"/>
<stop offset="0.691406" stop-color="#3C4E69"/>
<stop offset="0.695312" stop-color="#3C4D68"/>
<stop offset="0.699219" stop-color="#3B4D67"/>
<stop offset="0.703125" stop-color="#3B4C66"/>
<stop offset="0.707031" stop-color="#3B4B65"/>
<stop offset="0.710938" stop-color="#3B4B64"/>
<stop offset="0.714844" stop-color="#3A4A63"/>
<stop offset="0.71875" stop-color="#3A4A62"/>
<stop offset="0.722656" stop-color="#3A4961"/>
<stop offset="0.726562" stop-color="#394861"/>
<stop offset="0.730469" stop-color="#394860"/>
<stop offset="0.734375" stop-color="#39475F"/>
<stop offset="0.738281" stop-color="#38475E"/>
<stop offset="0.742188" stop-color="#38465D"/>
<stop offset="0.746094" stop-color="#38455C"/>
<stop offset="0.75" stop-color="#37455B"/>
<stop offset="0.753906" stop-color="#37445A"/>
<stop offset="0.757812" stop-color="#374459"/>
<stop offset="0.761719" stop-color="#364358"/>
<stop offset="0.765625" stop-color="#364257"/>
<stop offset="0.769531" stop-color="#364256"/>
<stop offset="0.773438" stop-color="#354155"/>
<stop offset="0.777344" stop-color="#354154"/>
<stop offset="0.78125" stop-color="#354054"/>
<stop offset="0.785156" stop-color="#343F53"/>
<stop offset="0.789062" stop-color="#343F52"/>
<stop offset="0.792969" stop-color="#343E51"/>
<stop offset="0.796875" stop-color="#333E50"/>
<stop offset="0.800781" stop-color="#333D4F"/>
<stop offset="0.804688" stop-color="#333C4E"/>
<stop offset="0.808594" stop-color="#323C4D"/>
<stop offset="0.8125" stop-color="#323B4C"/>
<stop offset="0.816406" stop-color="#323B4B"/>
<stop offset="0.820312" stop-color="#323A4A"/>
<stop offset="0.824219" stop-color="#313A49"/>
<stop offset="0.828125" stop-color="#313948"/>
<stop offset="0.832031" stop-color="#313847"/>
<stop offset="0.835938" stop-color="#303846"/>
<stop offset="0.839844" stop-color="#303746"/>
<stop offset="0.84375" stop-color="#303745"/>
<stop offset="0.847656" stop-color="#2F3644"/>
<stop offset="0.851562" stop-color="#2F3543"/>
<stop offset="0.855469" stop-color="#2F3542"/>
<stop offset="0.859375" stop-color="#2E3441"/>
<stop offset="0.863281" stop-color="#2E3440"/>
<stop offset="0.867188" stop-color="#2E333F"/>
<stop offset="0.871094" stop-color="#2D323E"/>
<stop offset="0.875" stop-color="#2D323D"/>
<stop offset="0.878906" stop-color="#2D313C"/>
<stop offset="0.882812" stop-color="#2C313B"/>
<stop offset="0.886719" stop-color="#2C303A"/>
<stop offset="0.890625" stop-color="#2C2F39"/>
<stop offset="0.894531" stop-color="#2B2F39"/>
<stop offset="0.898438" stop-color="#2B2E38"/>
<stop offset="0.902344" stop-color="#2B2E37"/>
<stop offset="0.90625" stop-color="#2A2D36"/>
<stop offset="0.910156" stop-color="#2A2C35"/>
<stop offset="0.914062" stop-color="#2A2C34"/>
<stop offset="0.917969" stop-color="#2A2B33"/>
<stop offset="0.921875" stop-color="#292B32"/>
<stop offset="0.925781" stop-color="#292A31"/>
<stop offset="0.929688" stop-color="#292930"/>
<stop offset="0.933594" stop-color="#28292F"/>
<stop offset="0.9375" stop-color="#28282E"/>
<stop offset="0.941406" stop-color="#28282D"/>
<stop offset="0.945312" stop-color="#27272C"/>
<stop offset="0.949219" stop-color="#27272C"/>
<stop offset="0.953125" stop-color="#27262B"/>
<stop offset="0.957031" stop-color="#26252A"/>
<stop offset="0.960938" stop-color="#262529"/>
<stop offset="0.964844" stop-color="#262428"/>
<stop offset="0.96875" stop-color="#252427"/>
<stop offset="0.972656" stop-color="#252326"/>
<stop offset="0.976562" stop-color="#252225"/>
<stop offset="0.980469" stop-color="#242224"/>
<stop offset="0.984375" stop-color="#242123"/>
<stop offset="0.988281" stop-color="#242122"/>
<stop offset="0.992188" stop-color="#232021"/>
<stop offset="0.996094" stop-color="#231F20"/>
<stop offset="1" stop-color="#231F20"/>
</radialGradient>
</defs>
</svg>
