<svg width="125" height="125" viewBox="0 0 125 125" fill="none" xmlns="http://www.w3.org/2000/svg">
<mask id="mask0_227_73" style="mask-type:luminance" maskUnits="userSpaceOnUse" x="4" y="4" width="87" height="88">
<path d="M4.00574 4.32446H90.8332V91.2493H4.00574V4.32446Z" fill="white"/>
</mask>
<g mask="url(#mask0_227_73)">
<mask id="mask1_227_73" style="mask-type:luminance" maskUnits="userSpaceOnUse" x="4" y="4" width="87" height="88">
<path d="M62.1025 4.31079C32.4117 4.31079 34.2656 17.1871 34.2656 17.1871L34.2985 30.5273H62.6292V34.5325H23.0455C23.0455 34.5325 4.04749 32.3775 4.04749 62.3368C4.04716 92.2984 20.6295 91.2359 20.6295 91.2359H30.5254V77.3316C30.5254 77.3316 29.9918 60.7476 46.8427 60.7476H74.9433C74.9433 60.7476 90.7285 61.0042 90.7285 45.4889V19.8355C90.7285 19.8355 93.1279 4.31079 62.1025 4.31079ZM46.4788 13.2812C49.2972 13.2812 51.5745 15.5598 51.5745 18.3788C51.5745 21.1982 49.2972 23.4765 46.4788 23.4765C43.6595 23.4765 41.3815 21.1982 41.3815 18.3788C41.3815 15.5598 43.6595 13.2812 46.4788 13.2812Z" fill="white"/>
</mask>
<g mask="url(#mask1_227_73)">
<path d="M4.04626 4.32397V92.2989H93.127V4.32397H4.04626Z" fill="url(#paint0_linear_227_73)"/>
</g>
</g>
<mask id="mask2_227_73" style="mask-type:luminance" maskUnits="userSpaceOnUse" x="34" y="33" width="87" height="88">
<path d="M34.25 33.666H121V120.699H34.25V33.666Z" fill="white"/>
</mask>
<g mask="url(#mask2_227_73)">
<mask id="mask3_227_73" style="mask-type:luminance" maskUnits="userSpaceOnUse" x="34" y="33" width="87" height="88">
<path d="M62.9445 120.667C92.6327 120.667 90.7779 107.788 90.7779 107.788L90.746 94.4473H62.4133V90.4444H101.998C101.998 90.4444 120.997 92.597 120.997 62.6397C120.997 32.6787 104.416 33.7412 104.416 33.7412H94.5194V47.6436C94.5194 47.6436 95.0507 64.2292 78.203 64.2292H50.0995C50.0995 64.2292 34.3137 63.9727 34.3137 79.4893V105.141C34.3137 105.141 31.9166 120.667 62.9445 120.667ZM78.5647 111.695C75.7486 111.695 73.468 109.414 73.468 106.598C73.468 103.776 75.7486 101.5 78.5647 101.5C81.3856 101.5 83.6617 103.776 83.6617 106.598C83.6617 109.414 81.3856 111.695 78.5647 111.695Z" fill="white"/>
</mask>
<g mask="url(#mask3_227_73)">
<path d="M31.9171 32.678V120.666H120.998V32.678H31.9171Z" fill="url(#paint1_linear_227_73)"/>
</g>
</g>
<defs>
<linearGradient id="paint0_linear_227_73" x1="4.40806" y1="3.95842" x2="93.3868" y2="92.0367" gradientUnits="userSpaceOnUse">
<stop stop-color="#387EB8"/>
<stop offset="0.125" stop-color="#387EB8"/>
<stop offset="0.140625" stop-color="#387EB8"/>
<stop offset="0.15625" stop-color="#387DB7"/>
<stop offset="0.171875" stop-color="#387DB6"/>
<stop offset="0.1875" stop-color="#387CB5"/>
<stop offset="0.203125" stop-color="#387CB4"/>
<stop offset="0.21875" stop-color="#387BB3"/>
<stop offset="0.234375" stop-color="#387BB2"/>
<stop offset="0.25" stop-color="#387AB1"/>
<stop offset="0.265625" stop-color="#387AB1"/>
<stop offset="0.28125" stop-color="#3879B0"/>
<stop offset="0.296875" stop-color="#3879AF"/>
<stop offset="0.3125" stop-color="#3878AE"/>
<stop offset="0.328125" stop-color="#3778AD"/>
<stop offset="0.34375" stop-color="#3777AC"/>
<stop offset="0.359375" stop-color="#3777AB"/>
<stop offset="0.375" stop-color="#3776AB"/>
<stop offset="0.390625" stop-color="#3776AA"/>
<stop offset="0.40625" stop-color="#3775A9"/>
<stop offset="0.421875" stop-color="#3775A8"/>
<stop offset="0.4375" stop-color="#3774A7"/>
<stop offset="0.453125" stop-color="#3774A6"/>
<stop offset="0.46875" stop-color="#3773A5"/>
<stop offset="0.484375" stop-color="#3773A4"/>
<stop offset="0.494335" stop-color="#3772A4"/>
<stop offset="0.5" stop-color="#3772A3"/>
<stop offset="0.505665" stop-color="#3772A3"/>
<stop offset="0.515625" stop-color="#3771A2"/>
<stop offset="0.53125" stop-color="#3771A2"/>
<stop offset="0.546875" stop-color="#3771A1"/>
<stop offset="0.5625" stop-color="#3770A0"/>
<stop offset="0.578125" stop-color="#37709F"/>
<stop offset="0.59375" stop-color="#376F9E"/>
<stop offset="0.609375" stop-color="#376F9D"/>
<stop offset="0.625" stop-color="#376E9D"/>
<stop offset="0.640625" stop-color="#366E9C"/>
<stop offset="0.65625" stop-color="#366D9B"/>
<stop offset="0.671875" stop-color="#366D9A"/>
<stop offset="0.6875" stop-color="#366C99"/>
<stop offset="0.703125" stop-color="#366C98"/>
<stop offset="0.71875" stop-color="#366B97"/>
<stop offset="0.734375" stop-color="#366B97"/>
<stop offset="0.75" stop-color="#366A96"/>
<stop offset="0.765625" stop-color="#366A95"/>
<stop offset="0.78125" stop-color="#366994"/>
<stop offset="0.8125" stop-color="#366994"/>
<stop offset="0.875" stop-color="#366994"/>
<stop offset="1" stop-color="#366994"/>
</linearGradient>
<linearGradient id="paint1_linear_227_73" x1="31.4401" y1="33.1824" x2="122.412" y2="119.171" gradientUnits="userSpaceOnUse">
<stop stop-color="#FFE052"/>
<stop offset="0.125" stop-color="#FFE052"/>
<stop offset="0.1875" stop-color="#FFE052"/>
<stop offset="0.21875" stop-color="#FFE052"/>
<stop offset="0.234375" stop-color="#FFDF51"/>
<stop offset="0.25" stop-color="#FFDF51"/>
<stop offset="0.265625" stop-color="#FFDE50"/>
<stop offset="0.28125" stop-color="#FFDD4F"/>
<stop offset="0.296875" stop-color="#FFDD4E"/>
<stop offset="0.3125" stop-color="#FFDC4E"/>
<stop offset="0.328125" stop-color="#FFDB4D"/>
<stop offset="0.34375" stop-color="#FFDB4C"/>
<stop offset="0.359375" stop-color="#FFDA4B"/>
<stop offset="0.375" stop-color="#FFD94B"/>
<stop offset="0.390625" stop-color="#FFD94A"/>
<stop offset="0.40625" stop-color="#FFD849"/>
<stop offset="0.421875" stop-color="#FFD748"/>
<stop offset="0.4375" stop-color="#FFD748"/>
<stop offset="0.453125" stop-color="#FFD647"/>
<stop offset="0.46875" stop-color="#FFD546"/>
<stop offset="0.482837" stop-color="#FFD545"/>
<stop offset="0.484375" stop-color="#FFD445"/>
<stop offset="0.5" stop-color="#FFD445"/>
<stop offset="0.515625" stop-color="#FFD444"/>
<stop offset="0.517163" stop-color="#FFD343"/>
<stop offset="0.53125" stop-color="#FFD343"/>
<stop offset="0.546875" stop-color="#FFD242"/>
<stop offset="0.5625" stop-color="#FFD242"/>
<stop offset="0.578125" stop-color="#FFD141"/>
<stop offset="0.59375" stop-color="#FFD040"/>
<stop offset="0.609375" stop-color="#FFD03F"/>
<stop offset="0.625" stop-color="#FFCF3F"/>
<stop offset="0.640625" stop-color="#FFCE3E"/>
<stop offset="0.65625" stop-color="#FFCE3D"/>
<stop offset="0.671875" stop-color="#FFCD3C"/>
<stop offset="0.6875" stop-color="#FFCC3C"/>
<stop offset="0.703125" stop-color="#FFCC3B"/>
<stop offset="0.71875" stop-color="#FFCB3A"/>
<stop offset="0.734375" stop-color="#FFCA39"/>
<stop offset="0.75" stop-color="#FFCA39"/>
<stop offset="0.765625" stop-color="#FFC938"/>
<stop offset="0.78125" stop-color="#FFC837"/>
<stop offset="0.796875" stop-color="#FFC836"/>
<stop offset="0.8125" stop-color="#FFC735"/>
<stop offset="0.828125" stop-color="#FFC635"/>
<stop offset="0.84375" stop-color="#FFC634"/>
<stop offset="0.859375" stop-color="#FFC533"/>
<stop offset="0.875" stop-color="#FFC432"/>
<stop offset="0.890625" stop-color="#FFC432"/>
<stop offset="0.90625" stop-color="#FFC331"/>
<stop offset="0.9375" stop-color="#FFC331"/>
<stop offset="1" stop-color="#FFC331"/>
</linearGradient>
</defs>
</svg>
